<svg xmlns="http://www.w3.org/2000/svg" xmlns:xlink="http://www.w3.org/1999/xlink" width="500" zoomAndPan="magnify" viewBox="0 0 375 374.999991" height="500" preserveAspectRatio="xMidYMid meet" version="1.0"><defs><clipPath id="58ba8aeb28"><path d="M 50.34375 22.003906 L 321 22.003906 L 321 352.753906 L 50.34375 352.753906 Z M 50.34375 22.003906 " clip-rule="nonzero"/></clipPath></defs><g clip-path="url(#58ba8aeb28)"><path fill="#ffffff" d="M 313.246094 127.679688 C 313.753906 127.753906 314.339844 127.898438 314.921875 127.898438 L 315.070312 126.078125 C 314.339844 126.003906 313.609375 125.859375 312.878906 125.714844 C 312.734375 124.839844 312.660156 123.964844 312.660156 123.019531 C 313.753906 123.382812 315.070312 123.671875 316.527344 123.671875 C 317.839844 123.671875 319.226562 123.457031 320.832031 123.019531 L 320.320312 121.269531 C 316.964844 122.289062 314.484375 121.851562 312.660156 121.050781 C 312.734375 118.355469 313.097656 115.515625 313.976562 112.308594 C 317.988281 98.179688 318.496094 89.65625 315.578125 84.703125 C 313.535156 81.203125 310.035156 79.820312 305.441406 78.800781 C 299.019531 77.34375 281.949219 82.953125 270.425781 92.132812 C 262.183594 98.6875 257.878906 106.046875 257.878906 113.328125 C 257.878906 121.34375 260.285156 131.832031 262.546875 141.957031 C 265.320312 154.125 268.164062 166.652344 266.339844 173.355469 C 262.035156 173.574219 256.855469 174.664062 252.042969 175.683594 C 251.386719 175.832031 250.800781 175.976562 250.144531 176.121094 C 249.34375 175.683594 248.542969 175.175781 247.8125 174.738281 C 244.820312 172.992188 242.269531 171.460938 240.152344 172.1875 C 238.984375 172.554688 238.183594 173.574219 237.527344 175.175781 C 237.089844 176.414062 237.160156 177.433594 237.746094 178.164062 C 239.203125 179.910156 243.144531 179.402344 249.855469 178.015625 C 252.117188 179.183594 254.59375 180.273438 257.292969 180.566406 C 256.273438 181.585938 255.691406 182.96875 255.617188 184.644531 C 255.398438 188.433594 256.054688 192.003906 256.566406 194.917969 C 256.566406 194.988281 256.566406 195.0625 256.636719 195.136719 C 242.707031 189.160156 230.011719 203.875 229.867188 204.023438 L 227.75 206.5 L 230.816406 205.480469 C 230.886719 205.480469 238.910156 202.855469 250.800781 204.53125 C 254.375 205.042969 256.566406 204.679688 257.878906 203.367188 C 259.265625 201.984375 259.191406 199.796875 258.828125 197.101562 C 260.503906 195.9375 267.871094 192.074219 281.511719 200.890625 C 278.304688 200.597656 273.707031 200.527344 270.9375 201.835938 C 266.996094 203.660156 260.867188 202.347656 260.796875 202.347656 L 260.503906 202.347656 C 259.992188 202.421875 259.265625 202.785156 258.972656 203.511719 C 258.609375 204.53125 259.117188 205.84375 260.648438 207.59375 C 259.117188 207.738281 255.835938 207.519531 253.0625 207.375 C 242.269531 206.789062 233.878906 206.644531 232.347656 210.214844 C 231.542969 211.960938 232.636719 214.222656 235.554688 217.0625 C 236.066406 217.71875 241.171875 223.109375 254.375 221.941406 C 261.378906 221.285156 262.546875 222.671875 262.621094 222.816406 C 262.691406 222.890625 262.691406 222.960938 262.621094 223.179688 C 262.253906 223.835938 260.941406 224.636719 259.410156 224.636719 C 258.972656 224.636719 258.460938 224.636719 257.878906 224.636719 C 254.449219 224.566406 249.269531 224.417969 247.519531 227.769531 C 245.914062 230.902344 248.03125 236 253.792969 243.359375 C 258.097656 248.894531 259.554688 253.484375 258.097656 257.128906 C 255.835938 262.589844 247.519531 264.410156 245.402344 264.847656 C 245.257812 264.847656 245.039062 264.847656 244.894531 264.921875 C 244.457031 264.847656 243.726562 264.847656 242.707031 265.066406 C 223.007812 265.796875 203.023438 252.171875 180.480469 234.835938 C 177.929688 232.871094 175.59375 230.828125 173.625 228.789062 C 188.652344 220.921875 198.9375 214.730469 194.050781 181.003906 C 207.542969 175.101562 223.15625 164.03125 223.519531 155.945312 C 223.667969 152.8125 221.625 150.480469 217.613281 148.878906 C 211.484375 146.472656 208.347656 143.632812 208.273438 140.355469 C 208.128906 134.308594 218.269531 126.441406 236.871094 118.210938 C 252.554688 111.289062 253.71875 102.476562 254.742188 94.753906 C 255.761719 87.03125 256.710938 79.746094 271.882812 74.429688 C 303.324219 63.359375 301.867188 39.609375 301.867188 39.390625 L 301.355469 33.125 L 300.042969 39.320312 C 298.875 44.855469 293.476562 47.769531 277.792969 53.523438 C 262.621094 59.132812 258.171875 65.105469 255.324219 74.210938 C 255.179688 74.792969 254.960938 75.304688 254.816406 75.886719 C 252.699219 82.878906 251.53125 86.667969 228.699219 95.117188 C 226.65625 95.847656 224.542969 96.574219 222.5 97.304688 C 220.53125 98.03125 218.488281 98.6875 216.589844 99.417969 C 217.171875 98.613281 217.683594 97.8125 218.121094 97.011719 C 218.851562 95.773438 219.726562 94.679688 221.113281 94.027344 C 223.59375 92.789062 226 91.402344 228.773438 90.601562 C 229.574219 90.382812 230.378906 90.164062 231.253906 90.019531 C 234.390625 89.507812 237.527344 88.855469 240.445312 87.46875 C 241.101562 87.179688 241.757812 86.742188 242.414062 86.375 C 242.707031 86.230469 242.925781 85.941406 243.214844 85.792969 C 245.84375 83.972656 247.519531 81.421875 248.542969 78.507812 C 248.90625 77.417969 249.125 76.25 249.34375 75.085938 C 249.855469 72.535156 250.363281 70.058594 250.875 67.511719 C 251.09375 66.34375 251.09375 65.179688 251.167969 64.011719 C 251.167969 63.792969 251.238281 63.574219 251.167969 63.359375 C 251.019531 63.066406 250.875 62.703125 250.65625 62.628906 C 250.4375 62.554688 250.074219 62.703125 249.855469 62.921875 C 249.34375 63.503906 248.832031 64.085938 248.394531 64.742188 C 247.082031 66.78125 245.476562 68.53125 243.652344 70.132812 C 242.195312 71.371094 240.664062 72.609375 238.839844 73.484375 C 237.089844 74.285156 235.410156 75.304688 233.734375 76.179688 C 232.273438 76.90625 230.886719 77.707031 229.648438 78.726562 C 227.53125 80.476562 225.636719 82.371094 224.105469 84.628906 C 223.445312 85.648438 222.71875 86.667969 222.0625 87.761719 C 222.28125 86.960938 222.425781 86.160156 222.644531 85.355469 C 223.082031 85.066406 223.226562 84.554688 223.375 84.046875 C 223.886719 82.371094 224.46875 80.695312 224.90625 79.019531 C 225.269531 77.34375 226.074219 75.886719 227.167969 74.648438 C 227.96875 73.773438 228.992188 73.046875 230.011719 72.246094 C 231.980469 70.714844 234.171875 69.695312 236.578125 68.964844 C 237.234375 68.75 237.890625 68.457031 238.621094 68.164062 C 239.058594 68.019531 239.421875 67.800781 239.859375 67.65625 C 240.078125 67.875 240.226562 68.019531 240.445312 68.238281 C 241.609375 69.257812 243.070312 69.039062 243.871094 67.726562 C 244.019531 67.511719 244.164062 67.21875 244.238281 67 C 244.382812 66.636719 244.527344 66.34375 244.894531 66.125 C 245.550781 65.6875 245.695312 65.25 245.476562 64.886719 C 245.183594 64.378906 244.746094 64.378906 244.238281 64.523438 C 244.164062 64.523438 244.089844 64.523438 243.945312 64.523438 C 243.144531 63.792969 242.195312 62.992188 240.953125 63.574219 C 239.570312 64.230469 239.570312 65.46875 239.640625 66.925781 C 238.472656 67.363281 237.234375 67.945312 235.992188 68.3125 C 233.296875 69.183594 230.816406 70.277344 228.625 72.171875 C 228.261719 72.464844 227.898438 72.753906 227.386719 72.972656 C 228.480469 70.789062 229.136719 68.382812 230.960938 66.636719 C 232.417969 65.25 233.878906 63.867188 235.484375 62.773438 C 237.378906 61.464844 239.421875 60.734375 241.539062 60.007812 C 243.070312 59.496094 244.601562 58.839844 246.207031 58.257812 C 247.882812 57.675781 249.488281 57.09375 251.019531 56.21875 C 251.386719 56 251.675781 56 251.96875 56.363281 C 252.1875 56.582031 252.335938 56.730469 252.554688 56.945312 C 253.429688 57.601562 254.449219 57.457031 255.035156 56.511719 C 255.398438 56 255.617188 55.417969 255.980469 54.90625 C 256.128906 54.6875 256.347656 54.46875 256.492188 54.324219 C 256.929688 53.886719 257.003906 53.378906 256.785156 52.941406 C 256.492188 52.503906 256.128906 52.359375 255.398438 52.503906 C 255.105469 52.578125 254.742188 52.578125 254.375 52.503906 C 253.648438 52.359375 252.917969 52.429688 252.261719 52.796875 C 251.167969 53.304688 250.800781 54.179688 251.019531 55.417969 C 249.855469 56.074219 248.6875 56.4375 247.519531 56.875 C 245.550781 57.53125 243.582031 58.113281 241.609375 58.769531 C 240.226562 59.207031 238.839844 59.789062 237.453125 60.296875 C 235.703125 60.953125 234.171875 61.902344 232.855469 63.210938 C 232.347656 63.722656 231.910156 64.160156 231.398438 64.597656 C 231.324219 64.523438 231.253906 64.523438 231.253906 64.523438 C 231.253906 64.523438 231.253906 64.449219 231.253906 64.449219 C 232.054688 62.703125 232.855469 60.878906 233.734375 59.132812 C 234.171875 58.257812 234.679688 57.457031 235.265625 56.65625 C 236.285156 55.34375 237.308594 54.105469 238.402344 52.796875 C 238.765625 52.867188 239.058594 52.941406 239.347656 52.941406 C 240.371094 53.011719 241.101562 52.648438 241.390625 51.703125 C 241.609375 51.121094 241.976562 50.828125 242.558594 50.683594 C 243.363281 50.464844 244.164062 50.246094 244.964844 50.101562 C 247.59375 49.515625 250.21875 48.933594 252.84375 48.425781 C 254.085938 48.207031 255.324219 47.914062 256.636719 47.839844 C 257.585938 47.769531 258.460938 47.40625 259.265625 46.96875 C 260.359375 46.382812 261.527344 45.800781 262.546875 45.21875 C 262.765625 45.292969 262.839844 45.292969 262.910156 45.363281 C 264.734375 46.75 266.996094 45.800781 267.433594 43.542969 C 267.582031 42.816406 267.507812 42.160156 268.089844 41.578125 C 268.457031 41.285156 268.308594 40.703125 267.945312 40.339844 C 267.582031 39.972656 266.921875 39.828125 266.484375 40.121094 C 266.265625 40.265625 266.046875 40.558594 265.828125 40.777344 C 262.910156 40.777344 262.328125 41.429688 262.472656 44.636719 C 262.109375 44.78125 261.746094 45 261.453125 45.144531 C 259.265625 46.457031 256.855469 47.1875 254.230469 47.476562 C 251.75 47.769531 249.34375 48.425781 246.9375 48.859375 C 245.257812 49.152344 243.582031 49.445312 241.828125 49.734375 C 241.464844 49.226562 241.539062 48.789062 241.976562 48.351562 C 242.414062 47.914062 242.851562 47.476562 243.289062 47.039062 C 244.382812 45.949219 245.476562 44.925781 246.5 43.835938 C 247.59375 42.742188 248.832031 41.796875 250.21875 40.992188 C 250.363281 41.066406 250.511719 41.140625 250.730469 41.210938 C 252.554688 42.015625 254.304688 40.992188 254.15625 38.953125 C 254.085938 38.007812 254.449219 37.496094 255.105469 36.988281 C 256.636719 35.75 258.316406 34.800781 260.285156 34.21875 C 262.183594 33.710938 264.078125 33.125 265.757812 32.105469 C 265.976562 31.960938 266.265625 32.035156 266.558594 32.105469 C 267.652344 32.472656 268.601562 32.105469 269.550781 31.742188 C 270.425781 31.378906 270.71875 30.503906 270.71875 29.558594 C 270.71875 28.972656 270.71875 28.464844 271.300781 28.027344 C 271.738281 27.734375 271.664062 27.007812 271.300781 26.644531 C 270.9375 26.277344 270.351562 26.277344 269.914062 26.644531 C 269.769531 26.789062 269.621094 27.007812 269.476562 27.152344 C 268.894531 27.082031 268.308594 27.007812 267.800781 27.007812 C 266.484375 27.082031 265.828125 27.734375 265.757812 29.121094 C 265.757812 29.777344 265.683594 30.503906 265.609375 31.304688 C 265.171875 31.378906 264.734375 31.453125 264.371094 31.597656 C 262.402344 32.179688 260.503906 32.835938 258.535156 33.492188 C 257.804688 33.710938 257.148438 34.144531 256.492188 34.511719 C 255.324219 35.238281 254.230469 36.039062 253.136719 36.769531 C 250.363281 36.1875 249.125 37.277344 249.488281 40.046875 C 249.417969 40.121094 249.34375 40.265625 249.199219 40.339844 C 248.46875 40.847656 247.738281 41.359375 246.863281 41.941406 C 246.9375 41.578125 246.9375 41.359375 247.007812 41.210938 C 247.8125 38.734375 248.539062 36.1875 249.488281 33.78125 C 250.292969 31.886719 251.457031 30.140625 252.480469 28.320312 C 252.625 28.101562 252.992188 27.953125 253.210938 27.882812 C 253.71875 27.734375 254.304688 27.734375 254.8125 27.515625 C 255.910156 27.082031 256.417969 25.988281 256.128906 24.820312 C 255.980469 24.3125 255.835938 23.875 256.128906 23.367188 C 256.417969 22.78125 255.761719 22.125 255.253906 22.417969 C 254.59375 22.710938 254.011719 22.5625 253.355469 22.636719 C 251.53125 22.855469 250.4375 25.550781 251.457031 27.082031 C 251.605469 27.300781 251.824219 27.515625 252.042969 27.808594 C 251.675781 28.390625 251.386719 29.046875 250.949219 29.628906 C 249.488281 31.667969 248.46875 33.929688 247.59375 36.257812 C 246.789062 38.445312 245.769531 40.628906 245.183594 42.886719 C 244.820312 44.199219 244.019531 45.144531 243.144531 46.019531 C 242.632812 46.53125 242.046875 47.113281 241.539062 47.621094 C 241.246094 47.332031 241.101562 46.894531 240.808594 46.820312 C 240.515625 46.75 240.226562 47.113281 239.714844 47.332031 C 237.527344 47.1875 236.359375 48.570312 236.941406 50.753906 C 237.089844 51.339844 237.527344 51.921875 237.816406 52.648438 C 237.015625 53.742188 236.066406 54.90625 235.046875 56.21875 C 234.753906 55.34375 234.753906 54.617188 234.828125 53.886719 C 235.191406 50.171875 235.703125 46.457031 235.992188 42.667969 C 236.285156 39.609375 237.234375 36.769531 238.109375 33.855469 C 238.328125 33.054688 238.691406 32.324219 238.984375 31.523438 C 239.277344 31.523438 239.421875 31.523438 239.640625 31.523438 C 240.953125 31.597656 241.757812 31.085938 242.121094 29.847656 C 242.195312 29.558594 242.265625 29.265625 242.265625 28.902344 C 242.265625 28.101562 242.121094 27.300781 242.558594 26.496094 C 242.777344 26.132812 242.558594 25.695312 242.121094 25.40625 C 241.683594 25.113281 241.171875 25.113281 240.882812 25.476562 C 240.445312 26.0625 239.859375 26.0625 239.277344 26.132812 C 238.328125 26.207031 237.816406 26.789062 237.527344 27.664062 C 237.160156 28.972656 237.378906 29.628906 238.402344 31.160156 C 237.890625 32.617188 237.378906 34.074219 236.871094 35.53125 C 235.554688 39.171875 234.972656 42.960938 234.679688 46.75 C 234.535156 48.859375 234.171875 50.902344 233.878906 53.011719 C 233.804688 53.742188 233.660156 54.542969 233.734375 55.273438 C 233.734375 55.925781 233.660156 56.511719 233.441406 57.09375 C 233.003906 58.113281 232.492188 59.058594 232.417969 60.226562 C 232.417969 60.589844 232.128906 60.953125 231.980469 61.390625 C 231.910156 61.316406 231.835938 61.246094 231.835938 61.246094 C 232.128906 58.769531 231.617188 56.363281 231.324219 53.960938 C 230.816406 50.390625 230.160156 46.894531 229.648438 43.324219 C 229.574219 43.035156 229.574219 42.816406 229.574219 42.523438 C 231.542969 41.359375 232.054688 39.027344 229.867188 37.496094 C 229.867188 37.277344 229.9375 37.058594 229.9375 36.839844 C 229.9375 36.257812 229.574219 35.820312 228.992188 35.820312 C 228.480469 35.75 227.96875 36.039062 227.898438 36.625 C 227.824219 37.132812 227.679688 37.496094 227.3125 37.863281 C 227.167969 38.007812 227.023438 38.296875 227.023438 38.515625 C 227.167969 39.464844 227.242188 40.484375 227.53125 41.429688 C 227.75 42.085938 228.40625 42.378906 229.136719 42.523438 C 229.210938 42.816406 229.28125 43.179688 229.355469 43.472656 C 229.9375 47.769531 230.449219 52.066406 231.105469 56.363281 C 231.472656 58.769531 231.253906 61.097656 230.816406 63.429688 C 230.304688 66.34375 228.699219 68.820312 227.53125 71.515625 C 227.460938 69.183594 227.53125 66.78125 227.386719 64.449219 C 227.242188 62.121094 226.949219 59.789062 226.292969 57.53125 C 226.511719 57.382812 226.730469 57.238281 226.949219 57.09375 C 227.96875 56.363281 228.1875 54.835938 227.3125 53.886719 C 227.023438 53.523438 226.730469 53.230469 226.4375 52.867188 C 226.21875 52.648438 226.074219 52.359375 226 52.140625 C 225.855469 51.703125 225.636719 51.339844 225.199219 51.339844 C 224.761719 51.339844 224.542969 51.628906 224.324219 51.992188 C 224.175781 52.285156 223.886719 52.503906 223.664062 52.722656 C 222.863281 53.160156 222.207031 53.667969 222.132812 54.6875 C 222.132812 55.707031 222.789062 56.292969 223.59375 56.800781 C 223.738281 56.875 223.957031 57.019531 224.175781 57.09375 C 225.488281 57.3125 225.855469 58.332031 226.074219 59.425781 C 226.363281 60.878906 226.511719 62.265625 226.730469 63.722656 C 227.167969 66.34375 227.023438 68.964844 226.875 71.589844 C 226.800781 72.753906 226.582031 73.847656 226 74.867188 C 225.5625 75.742188 225.269531 76.6875 224.980469 77.636719 C 224.542969 79.09375 224.03125 80.550781 223.59375 82.078125 C 223.886719 80.113281 224.03125 78.074219 223.59375 76.105469 C 222.863281 72.390625 221.625 68.964844 218.632812 66.34375 C 216.664062 64.597656 214.914062 62.703125 213.089844 60.878906 C 212.066406 59.859375 211.339844 58.695312 210.753906 57.457031 C 210.171875 56.074219 209.441406 54.761719 208.421875 53.667969 C 208.347656 53.523438 208.199219 53.449219 208.128906 53.304688 C 207.617188 52.722656 207.398438 52.722656 206.742188 53.230469 C 206.742188 53.304688 206.667969 53.378906 206.742188 53.378906 C 207.398438 55.707031 206.742188 58.039062 206.960938 60.371094 C 207.105469 61.390625 207.035156 62.484375 207.035156 63.503906 C 207.105469 65.46875 207.542969 67.292969 208.421875 69.039062 C 209.003906 70.277344 209.441406 71.589844 210.097656 72.753906 C 210.972656 74.574219 211.847656 76.46875 212.941406 78.144531 C 214.183594 80.113281 215.203125 82.078125 215.789062 84.410156 C 216.078125 85.792969 216.515625 87.105469 216.808594 88.488281 C 217.171875 90.019531 217.101562 91.550781 216.882812 93.152344 C 216.808594 93.953125 216.664062 94.753906 216.589844 95.554688 C 216.371094 97.15625 215.859375 98.761719 215.203125 100.289062 C 215.132812 100.363281 215.132812 100.507812 215.132812 100.582031 C 200.761719 106.046875 188.433594 113.621094 186.828125 135.839844 C 185.878906 133.726562 185.222656 131.542969 184.929688 129.28125 C 184.785156 128.117188 184.640625 126.953125 184.421875 125.785156 C 184.128906 123.527344 184.054688 121.269531 184.492188 119.085938 C 184.929688 117.117188 185.515625 115.152344 186.023438 113.183594 C 186.828125 109.90625 188.359375 106.992188 190.109375 104.152344 C 191.640625 101.675781 192.957031 98.980469 194.269531 96.285156 C 195.144531 94.535156 195.800781 92.640625 196.675781 90.894531 C 197.914062 88.34375 198.570312 85.648438 198.644531 82.808594 C 198.644531 81.277344 198.570312 79.746094 198.789062 78.21875 C 199.15625 74.792969 198.207031 71.371094 199.15625 68.019531 C 199.15625 67.945312 199.15625 67.875 199.082031 67.726562 C 198.0625 67 197.84375 67 197.039062 67.875 C 196.894531 68.019531 196.75 68.238281 196.601562 68.382812 C 195.144531 69.988281 194.121094 71.878906 193.246094 73.847656 C 192.371094 75.742188 191.277344 77.417969 189.890625 78.875 C 187.191406 81.570312 184.640625 84.335938 181.792969 86.8125 C 177.5625 90.601562 175.667969 95.628906 174.644531 100.945312 C 174.0625 103.785156 174.28125 106.699219 174.644531 109.542969 C 173.988281 107.429688 173.332031 105.316406 172.675781 103.203125 C 172.238281 101.820312 171.875 100.4375 171.144531 99.125 C 170.339844 97.59375 169.976562 96.066406 169.902344 94.390625 C 169.683594 90.601562 169.464844 86.8125 170.121094 83.027344 C 170.414062 80.984375 170.707031 78.875 171.070312 76.835938 C 171.363281 75.230469 171.875 73.703125 173.84375 73.410156 C 174.136719 73.335938 174.355469 73.191406 174.644531 73.046875 C 175.8125 72.316406 176.761719 71.445312 176.761719 69.988281 C 176.761719 68.53125 175.738281 67.800781 174.574219 67.144531 C 174.207031 66.925781 173.84375 66.5625 173.625 66.125 C 173.332031 65.617188 173.039062 65.179688 172.382812 65.25 C 171.65625 65.324219 171.363281 65.761719 171.21875 66.417969 C 171.070312 66.78125 170.851562 67.144531 170.558594 67.511719 C 170.121094 68.019531 169.683594 68.457031 169.246094 68.964844 C 168.082031 70.351562 168.371094 72.535156 169.832031 73.628906 C 170.121094 73.847656 170.414062 73.992188 170.707031 74.210938 C 169.683594 77.488281 169.320312 80.839844 169.101562 84.265625 C 168.882812 87.6875 168.957031 91.113281 168.882812 94.535156 C 167.277344 90.675781 164.945312 87.105469 164.140625 82.878906 C 163.558594 79.457031 163.191406 76.105469 163.703125 72.609375 C 164.578125 66.417969 165.382812 60.152344 166.257812 53.886719 C 166.328125 53.378906 166.476562 52.941406 166.546875 52.503906 C 167.570312 52.210938 168.589844 51.847656 168.882812 50.902344 C 169.246094 49.515625 169.394531 48.058594 169.613281 46.675781 C 169.613281 46.382812 169.394531 45.949219 169.175781 45.730469 C 168.589844 45.21875 168.371094 44.636719 168.300781 43.90625 C 168.226562 43.179688 167.496094 42.742188 166.765625 42.816406 C 165.964844 42.886719 165.453125 43.472656 165.453125 44.34375 C 165.453125 44.710938 165.527344 45 165.601562 45.292969 C 162.390625 47.40625 163.191406 50.902344 166.039062 52.503906 C 165.964844 52.867188 165.964844 53.230469 165.890625 53.667969 C 165.089844 58.769531 164.140625 63.941406 163.410156 69.039062 C 162.902344 72.535156 162.171875 76.03125 162.609375 79.601562 C 162.609375 79.675781 162.535156 79.746094 162.390625 79.820312 C 162.171875 79.238281 161.808594 78.726562 161.734375 78.144531 C 161.589844 76.46875 160.859375 75.085938 160.273438 73.628906 C 159.910156 72.753906 159.765625 71.953125 159.835938 71.007812 C 159.910156 69.914062 159.765625 68.820312 159.617188 67.726562 C 159.253906 64.742188 158.742188 61.683594 158.453125 58.695312 C 158.011719 53.160156 157.136719 47.695312 155.242188 42.449219 C 154.511719 40.339844 153.78125 38.226562 153.054688 36.113281 C 154.585938 33.855469 154.804688 32.90625 154.292969 31.085938 C 153.929688 29.777344 153.125 28.972656 151.8125 28.828125 C 150.9375 28.757812 150.136719 28.757812 149.480469 27.882812 C 149.042969 27.300781 148.3125 27.371094 147.726562 27.808594 C 147.144531 28.171875 146.851562 28.828125 147.144531 29.339844 C 147.726562 30.503906 147.582031 31.667969 147.582031 32.835938 C 147.582031 33.273438 147.726562 33.710938 147.800781 34.148438 C 148.3125 35.96875 149.480469 36.769531 151.375 36.625 C 151.667969 36.625 151.957031 36.625 152.324219 36.550781 C 152.761719 37.714844 153.199219 38.808594 153.5625 39.972656 C 154.875 44.199219 156.261719 48.351562 156.628906 52.722656 C 157.136719 58.113281 157.792969 63.503906 158.304688 68.964844 C 158.453125 69.988281 158.378906 71.078125 158.011719 72.316406 C 156.554688 70.421875 155.242188 68.75 154 67.21875 C 154.511719 66.199219 155.09375 65.398438 155.316406 64.523438 C 156.191406 61.464844 154.4375 59.425781 151.300781 59.640625 C 150.644531 59.277344 150.136719 58.839844 149.769531 58.914062 C 149.332031 58.988281 149.113281 59.640625 148.675781 60.078125 C 147.875 59.277344 147.144531 58.476562 146.34375 57.75 C 145.027344 56.4375 143.863281 55.199219 143.351562 53.230469 C 142.402344 49.953125 141.015625 46.820312 139.851562 43.6875 C 138.535156 40.339844 137.078125 37.058594 134.960938 34.148438 C 134.378906 33.34375 133.867188 32.398438 133.429688 31.523438 C 133.796875 31.085938 134.085938 30.796875 134.304688 30.503906 C 135.765625 28.320312 134.160156 24.457031 131.535156 24.09375 C 130.585938 23.949219 129.710938 24.09375 128.761719 23.730469 C 127.960938 23.367188 127.082031 24.3125 127.449219 25.113281 C 127.886719 25.914062 127.59375 26.570312 127.375 27.226562 C 126.9375 28.972656 127.667969 30.503906 129.34375 31.160156 C 130.074219 31.453125 130.878906 31.453125 131.679688 31.667969 C 132.042969 31.742188 132.628906 31.960938 132.773438 32.253906 C 134.234375 34.875 135.910156 37.351562 137.078125 40.121094 C 138.535156 43.617188 139.558594 47.332031 140.726562 50.902344 C 140.796875 51.191406 140.796875 51.484375 140.871094 51.992188 C 139.628906 51.121094 138.535156 50.390625 137.515625 49.589844 C 137.371094 49.445312 137.222656 49.296875 137.078125 49.226562 C 137.589844 45.292969 135.765625 43.617188 131.753906 44.492188 C 130.21875 43.398438 128.617188 42.230469 126.9375 41.210938 C 125.988281 40.628906 125.042969 40.046875 124.019531 39.683594 C 121.25 38.734375 118.402344 37.863281 115.632812 36.988281 C 115.046875 36.769531 114.390625 36.695312 113.808594 36.550781 C 113.734375 35.386719 113.660156 34.4375 113.589844 33.417969 C 113.515625 31.523438 112.496094 30.503906 110.597656 30.429688 C 109.796875 30.429688 108.992188 30.578125 108.191406 30.648438 C 107.972656 30.429688 107.753906 30.140625 107.535156 29.921875 C 106.878906 29.339844 106.074219 29.339844 105.492188 29.921875 C 104.980469 30.429688 104.835938 31.453125 105.492188 31.960938 C 106.292969 32.542969 106.367188 33.273438 106.367188 34.148438 C 106.367188 35.457031 106.730469 36.695312 108.042969 37.277344 C 109.429688 37.863281 110.816406 38.371094 112.421875 37.789062 C 112.785156 37.644531 113.222656 37.644531 113.515625 37.789062 C 115.996094 39.246094 118.695312 40.121094 121.46875 40.847656 C 124.238281 41.648438 126.71875 43.035156 128.980469 44.855469 C 129.929688 45.582031 130.441406 46.3125 130.367188 47.695312 C 130.21875 50.609375 132.773438 52.140625 135.398438 50.972656 C 135.617188 50.902344 135.835938 50.753906 136.054688 50.683594 C 138.027344 51.773438 139.851562 53.160156 141.453125 54.761719 C 142.988281 56.363281 144.589844 57.820312 146.125 59.425781 C 146.78125 60.078125 147.363281 60.734375 148.019531 61.390625 C 148.675781 62.046875 148.75 62.628906 148.238281 63.359375 C 145.757812 62.921875 143.277344 62.554688 140.871094 62.121094 C 137.296875 61.464844 133.796875 60.515625 130.292969 60.152344 C 126.5 59.789062 123.070312 58.769531 119.863281 56.800781 C 119.351562 56.511719 118.839844 56.292969 118.332031 56 C 118.550781 51.484375 117.671875 50.464844 113.441406 50.464844 C 113.152344 50.171875 112.859375 49.808594 112.496094 49.515625 C 111.839844 49.078125 110.960938 49.226562 110.453125 49.808594 C 109.941406 50.316406 109.722656 51.121094 110.234375 51.554688 C 111.109375 52.359375 110.960938 53.378906 111.179688 54.398438 C 111.765625 57.675781 115.121094 59.058594 117.671875 57.019531 C 117.746094 56.945312 117.890625 56.945312 118.183594 56.875 C 119.714844 57.675781 121.320312 58.476562 122.925781 59.351562 C 124.09375 60.007812 125.332031 60.445312 126.71875 60.589844 C 128.542969 60.808594 130.367188 61.097656 132.191406 61.464844 C 135.984375 62.265625 139.847656 63.066406 143.644531 63.941406 C 144.808594 64.160156 145.976562 64.523438 147.144531 64.816406 C 147.945312 65.03125 148.53125 65.46875 148.820312 66.34375 C 149.261719 67.726562 150.355469 68.238281 151.8125 68.09375 C 152.25 68.019531 152.6875 67.945312 153.199219 67.875 C 154.730469 69.769531 156.261719 71.589844 157.722656 73.484375 C 158.523438 74.574219 159.253906 75.8125 159.910156 77.050781 C 161.148438 79.601562 162.316406 82.226562 163.484375 84.773438 C 163.484375 84.773438 163.484375 84.847656 163.484375 84.917969 C 163.484375 84.917969 163.410156 84.992188 163.265625 85.066406 C 162.609375 84.410156 161.878906 83.753906 161.148438 83.027344 C 159.253906 81.132812 157.066406 79.675781 154.511719 78.800781 C 152.46875 78.074219 150.5 77.34375 148.457031 76.617188 C 145.613281 75.667969 142.765625 74.792969 139.921875 73.847656 C 138.171875 73.265625 136.421875 72.683594 134.816406 71.734375 C 135.179688 69.914062 134.597656 68.675781 133.066406 67.945312 C 132.117188 67.4375 131.097656 67.363281 130 67.582031 C 129.5625 67.65625 129.054688 67.65625 128.542969 67.511719 C 127.59375 67.292969 126.9375 67.4375 126.574219 68.09375 C 126.207031 68.75 126.355469 69.476562 127.011719 70.132812 C 127.300781 70.421875 127.59375 70.640625 127.8125 71.007812 C 128.324219 71.734375 128.6875 72.535156 129.199219 73.335938 C 130.074219 74.722656 131.535156 74.941406 132.847656 73.992188 C 133.136719 73.773438 133.429688 73.484375 133.722656 73.191406 C 134.160156 72.753906 134.523438 72.683594 135.035156 72.972656 C 137.222656 74.285156 139.628906 75.085938 142.039062 75.960938 C 144.300781 76.761719 146.488281 77.707031 148.75 78.507812 C 151.8125 79.601562 154.804688 80.695312 157.574219 82.589844 C 159.984375 84.265625 162.097656 86.230469 164.140625 88.199219 C 166.765625 90.675781 167.714844 94.171875 169.320312 97.375 C 168.664062 97.085938 168.082031 96.722656 167.570312 96.285156 C 164.433594 93.589844 160.785156 91.984375 156.847656 90.746094 C 155.023438 90.164062 153.34375 89.363281 151.59375 88.707031 C 151.667969 86.667969 151.667969 84.847656 149.699219 83.898438 C 147.875 83.027344 146.5625 84.191406 145.320312 85.210938 C 145.101562 85.210938 145.027344 85.210938 144.957031 85.136719 C 144.226562 84.847656 143.570312 84.917969 143.132812 85.648438 C 142.765625 86.230469 142.988281 86.886719 143.933594 87.46875 C 144.445312 87.761719 144.664062 88.199219 144.882812 88.707031 C 145.027344 89.070312 145.175781 89.4375 145.394531 89.800781 C 146.5625 91.695312 148.75 91.984375 150.425781 90.527344 C 150.71875 90.308594 150.9375 90.019531 151.230469 89.726562 C 151.8125 89.945312 152.398438 90.238281 152.980469 90.457031 C 153.929688 90.820312 154.875 91.332031 155.898438 91.621094 C 159.328125 92.714844 162.535156 94.097656 165.382812 96.355469 C 166.765625 97.449219 168.300781 98.542969 169.464844 99.851562 C 171.070312 101.601562 172.164062 103.714844 172.75 106.117188 C 173.332031 108.59375 174.136719 111 174.9375 113.476562 C 175.15625 114.132812 175.375 114.859375 175.957031 115.371094 C 176.25 116.535156 176.542969 117.699219 176.761719 118.867188 C 175.738281 117.261719 174.71875 115.804688 173.769531 114.277344 C 171.582031 111 168.808594 108.230469 165.820312 105.753906 C 163.996094 104.296875 161.953125 103.132812 159.835938 102.113281 C 157.355469 100.800781 154.949219 99.34375 152.46875 98.179688 C 149.84375 97.011719 147.65625 95.191406 145.539062 93.371094 C 142.914062 91.113281 140.578125 88.5625 138.683594 85.574219 C 138.097656 84.628906 137.371094 83.753906 136.566406 82.953125 C 136.347656 82.660156 135.765625 82.441406 135.398438 82.515625 C 135.109375 82.589844 134.816406 83.171875 134.671875 83.535156 C 134.523438 83.828125 134.597656 84.191406 134.597656 84.484375 C 134.742188 86.160156 134.742188 87.90625 135.035156 89.582031 C 135.691406 93.222656 136.421875 96.867188 137.222656 100.582031 C 137.589844 102.257812 137.878906 103.933594 138.464844 105.535156 C 139.996094 109.832031 142.402344 113.476562 146.195312 116.097656 C 146.632812 116.390625 146.925781 116.753906 147.363281 116.972656 C 148.3125 117.554688 149.1875 118.136719 150.207031 118.574219 C 154.4375 120.542969 158.960938 121.488281 163.558594 122.21875 C 164.726562 122.433594 165.964844 122.726562 167.132812 123.019531 C 171.070312 124.109375 174.574219 126.222656 178.21875 127.972656 C 180.1875 128.917969 181.429688 130.449219 182.523438 132.269531 C 183.691406 134.238281 185.078125 136.058594 186.316406 137.953125 C 186.535156 138.242188 186.753906 138.386719 187.121094 138.679688 C 186.902344 146.472656 187.847656 156.015625 190.402344 167.746094 C 191.421875 172.40625 192.226562 176.707031 192.882812 180.640625 C 190.695312 181.585938 188.578125 182.316406 186.683594 182.898438 C 176.90625 185.8125 165.453125 194.261719 163.339844 205.84375 C 163.046875 207.59375 162.902344 209.558594 163.121094 211.746094 C 162.753906 210.796875 162.390625 209.777344 162.097656 208.832031 C 161.585938 207.082031 160.929688 205.480469 160.347656 203.730469 C 160.128906 203.222656 160.054688 202.636719 160.203125 202.054688 C 160.640625 199.726562 161.003906 197.394531 161.585938 195.136719 C 161.953125 193.679688 162.683594 192.292969 163.265625 190.910156 C 163.410156 190.546875 163.777344 190.183594 164.140625 190.035156 C 165.453125 189.378906 166.257812 188.214844 166.183594 186.683594 C 166.109375 185.375 165.527344 184.28125 164.433594 183.554688 C 163.628906 182.96875 162.683594 182.898438 161.808594 183.335938 C 160.859375 183.84375 160.347656 184.644531 160.273438 185.738281 C 160.273438 186.683594 160.640625 187.558594 161.296875 188.214844 C 161.808594 188.796875 161.808594 189.308594 161.441406 189.964844 C 159.691406 193.023438 158.890625 196.300781 158.230469 199.726562 C 158.160156 200.160156 158.011719 200.597656 157.867188 201.179688 C 157.648438 200.964844 157.503906 200.890625 157.429688 200.746094 C 155.898438 199.140625 154.4375 197.464844 152.90625 195.9375 C 152.398438 195.425781 152.03125 194.917969 151.957031 194.1875 C 151.886719 193.605469 151.8125 193.023438 151.8125 192.367188 C 151.738281 191.710938 151.667969 190.984375 151.59375 190.328125 C 151.449219 188.871094 151.230469 187.414062 151.230469 185.882812 C 151.300781 180.492188 151.886719 175.101562 153.054688 169.859375 C 153.855469 166.507812 154.21875 163.082031 154 159.585938 C 153.855469 157.253906 153.5625 154.925781 153.273438 152.59375 C 152.835938 149.460938 152.617188 146.328125 152.542969 143.125 C 152.46875 139.191406 153.636719 135.476562 155.3125 131.90625 C 155.535156 131.46875 155.753906 131.03125 155.898438 130.59375 C 155.972656 130.375 155.753906 130.15625 155.679688 129.867188 C 155.460938 129.9375 155.09375 130.011719 154.949219 130.15625 C 154.65625 130.59375 154.367188 131.105469 154.148438 131.613281 C 153.5625 132.925781 153.054688 134.238281 152.46875 135.621094 C 151.449219 138.023438 150.355469 140.429688 149.40625 142.90625 C 148.164062 146.257812 148.09375 149.679688 149.113281 153.175781 C 149.917969 155.945312 150.5 158.859375 151.519531 161.554688 C 151.667969 161.917969 151.738281 162.28125 151.667969 162.644531 C 151.59375 164.832031 151.667969 166.945312 150.9375 169.058594 C 150.355469 170.730469 150.136719 172.40625 150.28125 174.15625 C 150.355469 174.8125 150.355469 175.539062 150.28125 176.195312 C 150.136719 179.183594 149.988281 182.167969 149.84375 185.15625 C 149.769531 186.832031 149.84375 188.507812 150.207031 190.183594 C 150.355469 190.910156 150.5 191.640625 150.425781 192.511719 C 150.28125 192.292969 150.207031 192.074219 150.0625 191.929688 C 148.96875 189.890625 147.945312 187.851562 146.851562 185.882812 C 146.195312 184.644531 145.757812 183.40625 145.613281 182.023438 C 145.246094 179.253906 145.027344 176.488281 144.519531 173.71875 C 144.152344 171.605469 144.082031 169.421875 143.863281 167.308594 C 143.496094 163.519531 142.621094 159.804688 141.601562 156.164062 C 141.453125 155.582031 141.164062 155.070312 140.945312 154.488281 C 140.214844 152.738281 139.484375 150.917969 138.683594 149.242188 C 138.171875 148.148438 137.589844 147.128906 136.933594 146.109375 C 136.347656 145.164062 135.691406 144.289062 135.109375 143.414062 C 134.960938 143.195312 134.816406 142.90625 134.597656 142.757812 C 134.453125 142.6875 134.234375 142.613281 134.085938 142.613281 C 133.941406 142.6875 133.867188 142.90625 133.796875 143.050781 C 133.722656 143.195312 133.796875 143.34375 133.867188 143.488281 C 134.890625 147.128906 135.035156 150.917969 135.253906 154.632812 C 135.472656 158.347656 137.078125 161.335938 139.339844 164.03125 C 140.871094 165.851562 141.820312 167.816406 142.476562 170.003906 C 143.058594 172.042969 143.425781 174.230469 143.644531 176.339844 C 143.933594 179.183594 144.519531 182.023438 145.175781 184.792969 C 145.394531 185.882812 146.125 186.832031 146.632812 187.777344 C 147.21875 188.871094 147.800781 189.890625 148.238281 190.984375 C 147.289062 190.253906 146.488281 189.378906 145.832031 188.433594 C 144.519531 186.394531 142.914062 184.644531 141.015625 183.117188 C 140.359375 182.605469 139.921875 181.804688 139.410156 181.222656 C 138.246094 179.910156 137.078125 178.597656 135.910156 177.289062 C 135.691406 177.070312 135.472656 176.851562 135.253906 176.558594 C 134.015625 174.300781 132.554688 172.117188 131.535156 169.710938 C 130.292969 166.871094 129.273438 163.882812 128.25 160.972656 C 128.03125 160.386719 127.960938 159.734375 127.8125 159.078125 C 127.667969 158.421875 127.667969 157.910156 128.179688 157.328125 C 128.761719 156.746094 128.761719 155.945312 128.46875 155.214844 C 127.886719 153.832031 126.863281 152.957031 125.40625 152.519531 C 124.96875 152.375 124.457031 152.449219 124.019531 152.519531 C 122.5625 152.886719 121.90625 154.269531 122.707031 155.582031 C 123.363281 156.671875 124.238281 157.621094 125.550781 158.058594 C 126.0625 158.203125 126.207031 158.566406 126.355469 159.003906 C 126.863281 161.625 127.960938 164.101562 128.980469 166.578125 C 130.074219 169.421875 131.242188 172.261719 132.917969 174.8125 C 132.992188 174.882812 132.917969 174.957031 132.917969 175.03125 C 132.847656 175.03125 132.773438 175.175781 132.773438 175.101562 C 130.585938 173.9375 128.324219 173.0625 126.355469 171.386719 C 124.386719 169.710938 122.195312 168.402344 120.082031 166.945312 C 118.695312 165.996094 117.308594 165.121094 116.214844 163.882812 C 115.851562 163.375 115.632812 162.9375 115.558594 162.28125 C 115.484375 159.734375 115.851562 157.253906 116.289062 154.777344 C 117.164062 149.972656 114.390625 145.164062 110.378906 142.976562 C 106.148438 140.648438 101.84375 138.316406 97.320312 136.566406 C 95.863281 135.984375 94.332031 135.695312 92.871094 135.257812 C 92.578125 135.183594 92.289062 135.183594 92.070312 135.183594 C 91.265625 135.183594 90.976562 135.621094 91.339844 136.347656 C 91.996094 137.441406 92.578125 138.535156 93.382812 139.410156 C 95.714844 141.886719 98.050781 144.214844 100.457031 146.546875 C 101.699219 147.714844 103.15625 148.734375 104.542969 149.753906 C 106.003906 150.773438 107.167969 151.9375 108.117188 153.46875 C 108.992188 154.851562 109.796875 156.234375 110.742188 157.765625 C 110.378906 157.691406 110.160156 157.621094 109.941406 157.621094 C 109.867188 158.203125 110.160156 158.492188 110.523438 158.785156 C 111.472656 159.660156 112.203125 160.679688 112.933594 161.773438 C 114.097656 163.667969 115.632812 165.269531 117.453125 166.578125 C 118.113281 167.015625 118.695312 167.601562 119.277344 168.035156 C 119.207031 168.109375 119.132812 168.253906 119.058594 168.328125 C 117.746094 167.816406 116.433594 167.308594 115.195312 166.652344 C 113.878906 165.996094 112.566406 165.339844 111.253906 164.539062 C 110.085938 163.8125 108.921875 163.011719 107.824219 162.136719 C 105.855469 160.386719 103.59375 158.929688 101.261719 157.691406 C 100.605469 157.328125 100.019531 156.964844 99.511719 156.453125 C 97.6875 154.414062 95.933594 152.375 94.183594 150.261719 C 93.820312 149.824219 93.601562 149.242188 93.238281 148.660156 C 93.457031 148.441406 93.675781 148.222656 93.894531 148.003906 C 94.257812 147.566406 94.332031 147.058594 94.257812 146.546875 C 93.964844 144.945312 91.921875 143.195312 90.246094 143.269531 C 89.441406 143.269531 88.640625 143.5625 88.128906 144.214844 C 87.402344 145.164062 87.402344 146.472656 88.347656 147.277344 C 88.933594 147.714844 89.660156 148.078125 90.320312 148.296875 C 91.121094 148.515625 91.777344 148.804688 92.214844 149.460938 C 93.894531 152.011719 96.300781 153.976562 98.269531 156.234375 C 98.414062 156.453125 98.632812 156.671875 98.707031 157.039062 C 98.269531 156.964844 97.832031 156.890625 97.394531 156.671875 C 94.839844 155.652344 92.289062 154.488281 89.734375 153.539062 C 87.402344 152.667969 84.992188 151.863281 82.585938 151.0625 C 81.710938 150.773438 80.761719 150.773438 79.886719 150.773438 C 77.625 150.773438 75.4375 150.917969 73.175781 151.0625 C 68.652344 151.355469 64.347656 152.59375 60.265625 154.632812 C 57.855469 155.796875 55.523438 156.964844 52.96875 157.691406 C 52.238281 157.910156 51.511719 158.203125 50.855469 158.566406 C 50.636719 158.710938 50.34375 159.148438 50.417969 159.441406 C 50.488281 159.734375 50.855469 159.949219 51.144531 160.097656 C 51.4375 160.242188 51.875 160.242188 52.238281 160.097656 C 55.15625 159.367188 58.003906 159.804688 60.847656 160.386719 C 64.347656 161.117188 67.851562 161.042969 71.351562 160.679688 C 73.6875 160.460938 75.800781 159.730469 77.625 158.203125 C 79.304688 156.746094 81.347656 156.164062 83.386719 155.582031 C 83.753906 155.507812 84.191406 155.363281 84.554688 155.214844 C 85.578125 154.777344 86.671875 154.707031 87.765625 154.996094 C 89.734375 155.507812 91.703125 156.089844 93.675781 156.671875 C 94.621094 156.964844 95.496094 157.183594 96.445312 157.472656 C 100.894531 158.929688 104.90625 161.1875 108.703125 163.957031 C 111.109375 165.707031 113.515625 167.234375 116.214844 168.472656 C 113.589844 167.746094 110.960938 167.164062 108.410156 166.363281 C 106.511719 165.777344 104.761719 164.90625 102.9375 164.175781 C 100.96875 163.375 98.925781 162.71875 96.8125 162.574219 C 95.207031 162.5 93.601562 162.644531 92.070312 163.300781 C 88.859375 164.613281 85.722656 165.925781 82.511719 167.234375 C 80.691406 167.964844 79.085938 169.128906 77.625 170.441406 C 76.238281 171.679688 74.636719 172.699219 73.175781 173.863281 C 73.101562 173.9375 73.03125 173.9375 72.957031 174.011719 C 72.8125 174.230469 72.519531 174.59375 72.59375 174.738281 C 72.664062 174.957031 73.03125 175.25 73.25 175.25 C 74.707031 175.394531 76.167969 175.613281 77.554688 175.46875 C 79.449219 175.320312 81.273438 175.25 83.167969 175.175781 C 85.503906 175.101562 87.910156 174.957031 90.246094 174.519531 C 91.996094 174.15625 93.746094 173.425781 95.425781 172.625 C 97.46875 171.679688 99.65625 171.167969 101.84375 170.585938 C 103.085938 170.296875 104.25 169.929688 105.492188 169.859375 C 107.605469 169.640625 109.722656 169.566406 111.839844 169.859375 C 112.859375 170.003906 113.808594 170.148438 114.828125 170.148438 C 116.433594 170.148438 117.964844 170.367188 119.496094 171.097656 C 122.488281 172.40625 125.480469 173.574219 128.46875 174.8125 C 129.199219 175.101562 129.929688 175.320312 130.660156 175.539062 C 132.042969 175.902344 133.136719 176.707031 134.453125 177.796875 C 133.941406 177.652344 133.648438 177.578125 133.429688 177.433594 C 133.136719 177.359375 132.847656 177.214844 132.554688 177.070312 C 131.097656 176.488281 129.636719 176.269531 128.105469 176.414062 C 126.9375 176.488281 125.769531 176.632812 124.605469 176.707031 C 123.726562 176.777344 123 176.632812 122.269531 176.050781 C 121.613281 175.613281 120.882812 175.25 120.152344 175.03125 C 119.207031 174.8125 118.402344 175.175781 117.820312 175.976562 C 117.234375 176.777344 117.382812 177.578125 117.820312 178.382812 C 118.769531 180.054688 120.519531 180.640625 122.050781 179.691406 C 122.632812 179.328125 123 178.597656 123.582031 177.871094 C 126.0625 177.726562 128.761719 177.507812 131.460938 177.945312 C 132.410156 178.089844 133.210938 178.597656 134.085938 179.035156 C 135.328125 179.691406 136.640625 180.347656 137.808594 181.148438 C 138.683594 181.730469 139.558594 182.460938 140.289062 183.1875 C 142.257812 185.300781 144.226562 187.558594 146.125 189.746094 C 146.195312 189.816406 146.269531 189.890625 146.488281 190.109375 C 144.589844 189.746094 142.988281 189.378906 141.453125 188.578125 C 139.410156 187.558594 137.222656 187.269531 134.960938 186.757812 C 130.730469 185.8125 126.5 186.03125 122.269531 186.539062 C 121.175781 186.683594 120.082031 186.757812 119.058594 186.757812 C 116.726562 186.832031 114.464844 187.269531 112.277344 188.214844 C 111.839844 188.433594 111.253906 188.507812 110.816406 188.726562 C 110.453125 188.871094 110.015625 189.089844 110.234375 189.597656 C 110.378906 190.035156 110.742188 190.109375 111.109375 189.964844 C 115.046875 188.871094 118.839844 190.109375 122.5625 191.054688 C 124.75 191.566406 126.863281 192.367188 129.054688 192.878906 C 130.511719 193.242188 131.972656 193.460938 133.429688 193.605469 C 135.035156 193.75 136.492188 193.53125 138.027344 192.949219 C 140.289062 192.074219 142.621094 191.855469 144.957031 191.855469 C 145.539062 191.855469 146.269531 192.074219 146.78125 192.367188 C 150.28125 194.40625 153.125 197.101562 155.753906 200.089844 C 156.410156 200.890625 156.917969 201.765625 157.503906 202.636719 C 157.429688 202.710938 157.429688 202.785156 157.355469 202.855469 C 155.824219 202.566406 154.367188 202.273438 152.835938 201.910156 C 151.738281 201.617188 150.574219 201.328125 149.480469 200.964844 C 149.042969 200.816406 148.675781 200.597656 148.382812 200.308594 C 147.726562 199.726562 147 199.359375 146.125 199.214844 C 144.738281 198.996094 143.789062 199.871094 143.863281 201.253906 C 143.933594 202.636719 144.519531 203.804688 145.757812 204.53125 C 147 205.261719 147.875 205.117188 148.75 203.949219 C 148.820312 203.875 148.894531 203.804688 149.113281 203.585938 C 149.769531 203.730469 150.5 203.949219 151.230469 204.167969 C 152.542969 204.460938 153.78125 204.824219 155.09375 205.042969 C 156.480469 205.332031 157.722656 205.84375 158.742188 206.789062 C 159.109375 207.15625 159.691406 207.445312 160.054688 207.8125 C 160.347656 208.101562 160.640625 208.464844 160.785156 208.832031 C 161.660156 210.871094 162.972656 213.054688 163.996094 215.167969 C 165.089844 219.175781 167.421875 223.617188 171.65625 228.351562 C 167.714844 230.394531 163.410156 232.722656 158.960938 235.710938 C 154.949219 238.40625 152.980469 241.246094 152.835938 244.304688 C 152.542969 250.207031 159.398438 255.816406 167.351562 262.300781 C 178.804688 271.625 191.789062 282.257812 187.121094 296.609375 C 184.203125 305.714844 179.3125 311.542969 172.601562 314.019531 C 171.945312 312.417969 171.21875 310.8125 170.414062 309.210938 C 160.128906 288.230469 150.136719 285.828125 145.101562 286.191406 C 139.339844 286.628906 135.472656 291.144531 134.160156 295.371094 C 132.847656 299.816406 134.085938 304.183594 137.441406 306.878906 C 144.152344 312.125 158.742188 319.921875 171.507812 316.351562 C 175.15625 326.113281 175.15625 333.90625 171.4375 339.734375 C 164.214844 351.023438 145.246094 350.808594 145.027344 350.808594 L 145.027344 352.628906 C 145.101562 352.628906 145.175781 352.628906 145.320312 352.628906 C 148.019531 352.628906 165.671875 352.191406 172.96875 340.753906 C 176.980469 334.488281 177.054688 326.113281 173.257812 315.839844 C 180.480469 313.144531 185.734375 306.953125 188.871094 297.265625 C 193.902344 281.675781 179.824219 270.238281 168.519531 260.988281 C 161.296875 255.085938 154.4375 249.476562 154.65625 244.523438 C 154.730469 242.046875 156.480469 239.71875 159.984375 237.386719 C 164.503906 234.328125 168.957031 231.996094 172.96875 229.882812 C 175.011719 231.996094 177.492188 234.253906 180.410156 236.511719 C 201.855469 252.976562 221.039062 266.234375 239.933594 267.179688 C 234.097656 271.769531 227.167969 285.464844 227.167969 325.09375 L 228.992188 325.09375 C 228.992188 284.371094 236.503906 272.277344 240.953125 268.710938 C 241.902344 267.910156 242.851562 267.472656 243.582031 267.253906 C 252.917969 266.960938 262.253906 263.464844 271.8125 255.742188 C 289.976562 241.101562 291.871094 234.980469 295.664062 222.816406 C 298.070312 215.09375 301.355469 204.605469 310.617188 187.558594 C 324.84375 161.335938 320.613281 148.441406 316.890625 137.148438 C 314.851562 133.871094 313.828125 130.886719 313.246094 127.679688 Z M 239.132812 177.070312 C 238.910156 176.851562 239.058594 176.269531 239.203125 175.902344 C 239.640625 174.8125 240.078125 174.230469 240.734375 174.011719 C 240.882812 173.9375 241.101562 173.9375 241.320312 173.9375 C 242.707031 173.9375 244.746094 175.175781 246.863281 176.414062 C 247.082031 176.558594 247.226562 176.632812 247.445312 176.777344 C 243.507812 177.507812 239.933594 178.015625 239.132812 177.070312 Z M 256.566406 202.203125 C 255.761719 203.003906 253.9375 203.222656 251.09375 202.855469 C 243.214844 201.765625 237.015625 202.417969 233.515625 203.074219 C 236.652344 200.234375 242.777344 195.644531 249.707031 195.644531 C 252.042969 195.644531 254.523438 196.15625 257.003906 197.394531 C 257.367188 199.652344 257.441406 201.398438 256.566406 202.203125 Z M 239.421875 47.039062 C 239.570312 47.039062 239.496094 47.039062 239.421875 47.039062 Z M 250.074219 64.667969 C 250.144531 64.667969 250.21875 64.667969 250.292969 64.742188 C 250.144531 66.054688 250 67.363281 249.78125 68.675781 C 249.417969 70.789062 248.832031 72.898438 248.542969 75.085938 C 248.175781 77.417969 247.375 79.527344 246.28125 81.496094 C 245.988281 82.007812 245.695312 82.441406 245.332031 82.878906 C 242.777344 85.792969 239.496094 87.542969 235.703125 88.417969 C 234.023438 88.78125 232.273438 89.070312 230.597656 89.4375 C 229.941406 89.582031 229.355469 89.726562 228.699219 89.875 C 225.707031 90.746094 223.007812 92.203125 220.308594 93.589844 C 220.019531 93.734375 219.800781 93.878906 219.507812 94.027344 C 220.675781 92.203125 222.207031 90.675781 223.957031 89.4375 C 224.6875 88.925781 225.417969 88.488281 226.074219 87.980469 C 228.335938 86.304688 230.667969 84.847656 233.222656 83.679688 C 235.921875 82.515625 238.765625 81.789062 241.683594 81.203125 C 242.046875 81.132812 242.558594 81.132812 242.925781 80.621094 C 240.226562 80.695312 237.890625 81.789062 235.335938 82.078125 C 236.433594 81.203125 237.597656 80.402344 238.691406 79.601562 C 238.765625 79.601562 238.839844 79.601562 238.839844 79.527344 C 239.351562 79.238281 239.859375 78.945312 240.296875 78.582031 C 240.808594 78.21875 241.246094 77.78125 241.683594 77.34375 C 243.726562 75.523438 245.769531 73.703125 247.15625 71.296875 C 248.03125 69.769531 248.761719 68.238281 249.34375 66.5625 C 249.636719 65.90625 249.855469 65.25 250.074219 64.667969 Z M 222.71875 87.761719 C 224.324219 84.917969 226.292969 82.441406 228.773438 80.332031 C 229.792969 79.457031 230.886719 78.65625 231.980469 78 C 233.515625 77.125 235.191406 76.46875 236.722656 75.59375 C 238.621094 74.574219 240.734375 73.773438 242.488281 72.390625 C 244.894531 70.496094 247.082031 68.457031 248.832031 65.90625 C 249.050781 65.617188 249.269531 65.324219 249.417969 65.03125 C 248.394531 69.402344 244.964844 74.574219 242.269531 75.960938 C 242.777344 75.230469 243.289062 74.574219 243.726562 73.921875 C 244.820312 72.246094 244.820312 72.246094 244.746094 71.660156 C 244.675781 71.734375 244.527344 71.734375 244.527344 71.808594 C 243.507812 73.847656 241.976562 75.523438 240.589844 77.34375 C 240.296875 77.78125 239.859375 78.144531 239.421875 78.4375 C 237.671875 79.675781 235.847656 80.914062 234.023438 82.078125 C 232.859375 82.878906 231.617188 83.535156 230.378906 84.265625 C 229.722656 84.628906 228.992188 84.992188 228.042969 85.503906 C 229.429688 83.390625 231.035156 81.640625 231.980469 79.457031 C 231.835938 79.601562 231.761719 79.746094 231.617188 79.894531 C 230.304688 81.640625 229.0625 83.390625 227.824219 85.136719 C 227.242188 86.011719 226.511719 86.667969 225.636719 87.25 C 224.105469 88.34375 222.425781 89.21875 221.113281 90.527344 C 221.113281 90.527344 221.039062 90.527344 220.894531 90.527344 C 221.550781 89.65625 222.132812 88.707031 222.71875 87.761719 Z M 208.929688 57.457031 C 209.660156 58.914062 210.609375 60.226562 211.777344 61.316406 C 213.890625 63.285156 216.007812 65.25 218.121094 67.21875 C 219.289062 68.3125 220.3125 69.621094 220.894531 71.152344 C 221.332031 72.171875 221.625 73.191406 221.988281 74.210938 C 222.425781 75.523438 222.644531 76.90625 222.644531 78.363281 C 222.570312 81.351562 222.28125 84.335938 221.40625 87.25 C 220.96875 88.78125 220.238281 90.238281 219.507812 91.695312 C 219.652344 89.65625 219.800781 87.6875 219.871094 85.648438 C 219.871094 84.554688 219.726562 83.464844 219.652344 82.441406 C 219.652344 82.152344 219.582031 81.789062 219.582031 81.496094 C 219.726562 80.257812 220.019531 79.019531 220.164062 77.855469 C 220.308594 76.761719 220.457031 75.742188 220.601562 74.648438 C 220.601562 74.503906 220.53125 74.285156 220.53125 74.136719 C 220.457031 74.136719 220.382812 74.136719 220.308594 74.136719 C 219.800781 76.179688 219.652344 78.363281 218.996094 80.476562 C 218.707031 79.675781 218.339844 78.875 218.195312 78.074219 C 217.613281 75.8125 216.589844 73.773438 215.132812 71.953125 C 214.914062 71.660156 214.695312 71.226562 214.621094 70.789062 C 214.476562 69.914062 214.402344 69.039062 214.402344 68.238281 C 214.402344 67.144531 214.402344 65.980469 214.109375 64.886719 C 213.671875 66.636719 214.035156 68.382812 213.816406 70.132812 C 213.378906 69.476562 213.015625 68.75 212.722656 68.019531 C 212.140625 66.636719 211.628906 65.179688 210.609375 64.011719 C 209.953125 63.210938 209.660156 62.335938 209.367188 61.316406 C 209.222656 60.734375 209.078125 60.152344 208.785156 59.640625 C 208.347656 58.769531 208.273438 57.820312 208.203125 56.800781 C 208.640625 56.945312 208.785156 57.164062 208.929688 57.457031 Z M 216.589844 75.8125 C 216.515625 75.8125 216.515625 75.886719 216.445312 75.886719 C 216.371094 75.667969 216.296875 75.449219 216.226562 75.230469 C 216.296875 75.378906 216.445312 75.59375 216.589844 75.8125 Z M 216.226562 83.390625 C 215.714844 81.351562 214.695312 79.527344 213.527344 77.707031 C 212.433594 75.960938 211.410156 74.136719 210.460938 72.316406 C 209.734375 70.933594 209.148438 69.476562 208.492188 68.09375 C 207.835938 66.78125 207.398438 65.46875 207.253906 64.011719 C 207.105469 62.554688 207.035156 61.027344 207.035156 59.570312 C 207.035156 58.550781 207.105469 57.457031 207.179688 56.4375 C 207.398438 56.582031 207.472656 56.730469 207.472656 56.875 C 207.691406 58.183594 208.054688 59.421875 208.710938 60.664062 C 208.859375 60.878906 208.859375 61.171875 208.929688 61.464844 C 209.222656 62.335938 209.515625 63.210938 210.171875 63.941406 C 210.679688 64.597656 211.046875 65.25 211.265625 66.054688 C 211.777344 68.09375 212.578125 70.058594 213.964844 71.734375 C 214.328125 72.171875 214.695312 72.609375 214.984375 73.046875 C 215.421875 73.703125 215.714844 74.355469 216.078125 75.085938 C 214.984375 73.921875 213.890625 72.683594 212.871094 71.515625 C 211.777344 70.277344 210.753906 69.039062 209.660156 67.875 C 209.585938 68.164062 209.660156 68.457031 209.804688 68.675781 C 210.535156 69.769531 211.265625 70.859375 212.214844 71.734375 C 212.722656 72.171875 213.234375 72.683594 213.746094 73.191406 C 215.640625 75.160156 216.808594 77.5625 217.902344 79.964844 C 218.488281 81.277344 218.925781 82.589844 218.925781 83.972656 C 218.925781 86.15625 218.777344 88.34375 218.632812 90.457031 C 218.488281 91.765625 217.902344 93.003906 217.320312 94.242188 C 217.320312 93.953125 217.320312 93.660156 217.394531 93.371094 C 217.683594 91.183594 217.757812 89.070312 217.175781 86.886719 C 216.953125 85.722656 216.515625 84.554688 216.226562 83.390625 Z M 150.644531 59.207031 C 150.574219 59.207031 150.5 59.207031 150.644531 59.207031 Z M 137.003906 86.523438 C 139.484375 90.238281 142.695312 93.222656 146.195312 95.917969 C 148.75 97.886719 151.742188 98.980469 154.585938 100.507812 C 156.847656 101.746094 159.253906 102.695312 161.441406 104.003906 C 163.121094 104.953125 164.652344 106.117188 166.109375 107.355469 C 169.683594 110.414062 172.601562 114.058594 174.9375 118.136719 C 175.738281 119.523438 176.542969 120.90625 177.417969 122.363281 C 177.273438 122.363281 177.125 122.363281 177.125 122.363281 C 175.230469 120.394531 172.820312 119.15625 170.632812 117.554688 C 169.394531 116.679688 168.371094 115.660156 167.496094 114.421875 C 165.671875 111.871094 163.777344 109.324219 161.953125 106.773438 C 161.808594 106.554688 161.660156 106.335938 161.441406 106.117188 C 162.828125 109.324219 165.089844 111.800781 167.132812 114.859375 C 165.820312 114.132812 164.796875 113.695312 163.777344 113.109375 C 162.027344 112.089844 160.203125 111.070312 158.453125 109.90625 C 155.824219 108.15625 153.199219 106.410156 150.644531 104.589844 C 150.0625 104.152344 149.480469 103.566406 148.96875 102.984375 C 146.925781 100.4375 144.808594 97.960938 143.277344 94.972656 C 143.207031 94.898438 143.058594 94.828125 142.988281 94.753906 C 142.914062 95.628906 142.914062 95.699219 144.445312 98.03125 C 145.101562 99.050781 145.832031 100 146.5625 101.019531 C 142.621094 99.050781 137.660156 91.476562 136.203125 85.136719 C 136.421875 85.722656 136.714844 86.085938 137.003906 86.523438 Z M 178.4375 126.585938 C 174.5 124.546875 170.5625 122.363281 166.257812 121.125 C 165.382812 120.832031 164.433594 120.613281 163.484375 120.46875 C 161.003906 119.957031 158.523438 119.59375 156.042969 119.011719 C 150.574219 117.773438 145.90625 115.152344 142.109375 111 C 141.601562 110.414062 141.164062 109.6875 140.726562 109.03125 C 139.121094 106.117188 137.878906 103.058594 137.441406 99.707031 C 137.003906 96.574219 136.203125 93.515625 135.617188 90.457031 C 135.253906 88.5625 135.109375 86.667969 134.816406 84.773438 C 134.890625 84.773438 135.035156 84.703125 135.109375 84.703125 C 135.398438 85.574219 135.765625 86.449219 136.054688 87.324219 C 136.859375 89.726562 137.953125 91.984375 139.191406 94.171875 C 141.234375 97.667969 144.226562 100.21875 147.144531 102.914062 C 147.800781 103.496094 148.457031 104.152344 149.1875 104.660156 C 149.84375 105.171875 150.574219 105.609375 151.300781 106.046875 C 151.375 106.117188 151.449219 106.117188 151.519531 106.117188 C 153.125 107.285156 154.804688 108.449219 156.410156 109.6875 C 152.761719 109.324219 149.40625 107.71875 145.464844 107.574219 C 146.050781 108.230469 146.707031 108.230469 147.289062 108.375 C 151.449219 109.25 155.535156 110.34375 159.546875 112.019531 C 163.339844 113.621094 166.695312 115.804688 169.902344 118.210938 C 170.925781 118.9375 171.945312 119.667969 173.039062 120.394531 C 175.59375 122.21875 177.710938 124.402344 179.460938 127.097656 C 179.167969 126.953125 178.804688 126.804688 178.4375 126.585938 Z M 178.21875 98.324219 C 178.148438 98.324219 178 98.324219 177.929688 98.324219 C 177.855469 98.613281 177.78125 98.832031 177.78125 99.125 C 178 100.65625 178.21875 102.257812 178.4375 103.785156 C 178.730469 105.535156 179.023438 107.355469 179.3125 109.105469 C 179.386719 109.542969 179.242188 109.980469 179.242188 110.414062 C 179.09375 111.945312 178.875 113.546875 178.949219 115.078125 C 179.023438 117.992188 179.242188 120.90625 179.460938 123.820312 C 178.4375 121.707031 177.417969 119.667969 176.761719 117.410156 C 175.519531 113.183594 175.082031 108.886719 175.011719 104.515625 C 174.9375 102.476562 175.300781 100.507812 175.957031 98.542969 C 176.46875 97.085938 176.90625 95.554688 177.5625 94.097656 C 178.4375 91.914062 179.898438 90.019531 181.574219 88.417969 C 184.640625 85.574219 187.703125 82.734375 190.765625 79.894531 C 192.519531 78.289062 193.902344 76.398438 194.925781 74.285156 C 195.144531 73.847656 195.363281 73.484375 195.726562 73.117188 C 195.65625 74.503906 195.507812 75.886719 194.925781 77.199219 C 194.558594 78 194.339844 78.800781 194.121094 79.601562 C 193.757812 80.984375 193.320312 82.371094 192.371094 83.464844 C 190.984375 85.210938 190.183594 87.25 189.382812 89.289062 C 188.941406 90.382812 188.433594 91.402344 187.777344 92.351562 C 187.484375 89.800781 187.921875 87.25 187.339844 84.703125 C 186.972656 86.304688 186.972656 87.90625 186.902344 89.507812 C 186.902344 90.746094 186.753906 91.984375 186.609375 93.222656 C 186.535156 93.808594 186.246094 94.460938 185.878906 94.898438 C 183.765625 97.523438 182.304688 100.507812 181.429688 103.785156 C 181.136719 104.953125 180.628906 106.117188 180.191406 107.285156 C 179.167969 104.441406 178.949219 101.308594 178.21875 98.324219 Z M 184.347656 100 C 184.203125 100.289062 184.128906 100.65625 183.984375 100.945312 C 183.910156 100.871094 183.835938 100.871094 183.765625 100.800781 C 183.984375 100.582031 184.128906 100.289062 184.347656 100 Z M 182.523438 126.367188 C 182.597656 126.734375 182.667969 127.171875 182.597656 127.605469 C 181.792969 125.859375 180.847656 124.109375 180.699219 122.144531 C 180.410156 119.011719 180.261719 115.878906 180.261719 112.746094 C 180.261719 110.707031 180.917969 108.742188 181.722656 106.917969 C 183.253906 103.351562 185.003906 99.925781 187.703125 97.085938 C 188.433594 96.355469 189.160156 95.628906 189.964844 94.972656 C 191.421875 93.734375 192.445312 92.132812 193.464844 90.527344 C 193.683594 90.238281 193.757812 89.800781 193.683594 89.363281 C 192.152344 91.113281 190.621094 92.933594 189.089844 94.679688 C 187.558594 96.429688 185.953125 98.179688 184.421875 99.851562 C 184.929688 98.90625 185.441406 97.886719 186.023438 96.9375 C 186.464844 96.285156 186.972656 95.628906 187.484375 94.972656 C 189.453125 92.570312 190.621094 89.726562 191.351562 86.742188 C 191.640625 85.574219 192.152344 84.554688 192.882812 83.609375 C 193.757812 82.515625 194.269531 81.277344 194.632812 80.039062 C 194.777344 79.675781 194.777344 79.238281 194.996094 78.875 C 195.875 77.125 196.457031 75.304688 196.820312 73.410156 C 196.894531 73.191406 196.96875 72.972656 197.257812 72.753906 C 197.332031 74.285156 197.476562 75.742188 197.476562 77.269531 C 197.476562 79.457031 197.332031 81.570312 197.1875 83.753906 C 197.039062 85.867188 196.382812 87.761719 195.433594 89.65625 C 194.488281 91.695312 193.613281 93.734375 192.589844 95.773438 C 191.203125 98.394531 189.746094 101.089844 188.140625 103.640625 C 186.464844 106.261719 185.003906 108.886719 184.273438 111.871094 C 183.835938 113.621094 183.253906 115.296875 182.742188 117.042969 C 181.941406 120.105469 182.085938 123.238281 182.523438 126.367188 Z M 150.28125 155.214844 C 150.0625 154.269531 149.917969 153.25 149.550781 152.300781 C 148.09375 148.222656 148.894531 144.363281 150.574219 140.355469 C 150.644531 140.574219 150.71875 140.71875 150.71875 140.792969 C 150.5 145.453125 151.011719 150.042969 151.886719 154.632812 C 152.03125 155.433594 152.03125 156.308594 152.105469 157.183594 C 151.300781 155.214844 151.011719 153.101562 149.988281 151.210938 C 150.136719 152.449219 150.425781 153.613281 150.71875 154.777344 C 151.011719 155.945312 151.375 157.109375 151.375 158.277344 C 150.792969 157.402344 150.5 156.308594 150.28125 155.214844 Z M 142.039062 166.578125 C 141.382812 165.558594 140.871094 164.539062 140.140625 163.738281 C 138.972656 162.5 138.097656 161.117188 137.152344 159.660156 C 136.203125 158.203125 135.691406 156.601562 135.546875 154.851562 C 135.253906 151.792969 134.960938 148.804688 134.597656 145.820312 C 134.597656 145.671875 134.671875 145.527344 134.671875 145.308594 C 135.835938 146.621094 136.566406 148.078125 137.152344 149.535156 C 137.734375 150.917969 138.316406 152.300781 138.972656 153.6875 C 139.339844 154.558594 139.777344 155.433594 140.070312 156.382812 C 140.578125 157.910156 140.796875 159.515625 141.089844 161.117188 C 141.015625 161.117188 140.945312 161.1875 140.871094 161.1875 C 140.214844 159.660156 139.558594 158.128906 138.902344 156.671875 C 138.828125 156.671875 138.753906 156.746094 138.683594 156.746094 C 138.828125 157.253906 138.902344 157.691406 139.121094 158.203125 C 139.851562 159.878906 140.578125 161.554688 141.382812 163.230469 C 141.746094 164.25 142.109375 165.339844 142.039062 166.578125 Z M 114.246094 154.050781 C 114.027344 155.507812 113.808594 156.964844 113.589844 158.710938 C 112.933594 157.035156 112.347656 155.582031 111.839844 154.125 C 111.621094 153.46875 111.472656 152.738281 111.328125 152.011719 C 110.960938 150.480469 110.453125 149.097656 109.429688 147.929688 C 109.285156 147.785156 109.066406 147.640625 108.703125 147.421875 C 108.773438 147.710938 108.773438 147.859375 108.773438 147.929688 C 109.941406 151.71875 111.183594 155.433594 112.347656 159.222656 C 112.421875 159.515625 112.496094 159.730469 112.566406 160.023438 C 112.496094 160.097656 112.421875 160.097656 112.421875 160.167969 C 112.277344 159.878906 112.058594 159.585938 111.910156 159.222656 C 110.671875 157.035156 109.503906 154.925781 108.265625 152.738281 C 107.242188 150.992188 105.855469 149.605469 104.179688 148.441406 C 102.574219 147.347656 101.042969 146.109375 99.582031 144.800781 C 97.394531 142.757812 95.351562 140.648438 93.308594 138.535156 C 92.800781 138.023438 92.433594 137.367188 91.996094 136.785156 C 91.851562 136.566406 91.851562 136.347656 91.632812 135.839844 C 92.871094 136.203125 93.964844 136.421875 94.914062 136.785156 C 96.738281 137.515625 98.5625 138.242188 100.3125 139.117188 C 103.375 140.648438 106.441406 142.105469 109.285156 143.925781 C 113.078125 146.183594 114.828125 149.605469 114.246094 154.050781 Z M 80.761719 154.050781 C 80.398438 154.125 79.960938 154.125 79.59375 154.195312 C 77.625 154.269531 75.582031 154.269531 73.613281 154.414062 C 72.519531 154.488281 71.5 154.777344 70.476562 155.070312 C 69.964844 155.214844 69.601562 155.582031 69.164062 155.871094 C 69.964844 155.726562 70.695312 155.289062 71.425781 155.144531 C 73.90625 154.558594 76.457031 154.925781 79.085938 154.707031 C 77.554688 155.726562 76.3125 156.746094 74.855469 157.546875 C 73.90625 158.058594 72.882812 158.640625 71.863281 158.785156 C 69.382812 159.148438 66.828125 159.441406 64.347656 159.296875 C 61.433594 159.148438 58.515625 158.492188 55.886719 158.128906 C 57.273438 157.328125 58.804688 156.382812 60.410156 155.582031 C 64.347656 153.613281 68.433594 152.449219 72.8125 152.082031 C 74.78125 151.9375 76.75 151.863281 78.71875 151.792969 C 81.128906 151.644531 83.242188 152.375 85.429688 153.175781 C 83.753906 153.46875 82.222656 153.757812 80.761719 154.050781 Z M 109.578125 168.546875 C 108.410156 168.402344 107.167969 168.402344 106.003906 168.546875 C 105.273438 168.621094 104.46875 168.472656 103.742188 168.328125 C 102.71875 168.183594 101.699219 167.746094 100.675781 167.671875 C 97.25 167.382812 93.820312 167.816406 90.464844 168.765625 C 90.320312 168.839844 90.246094 168.910156 90.101562 168.984375 C 90.539062 168.910156 90.976562 168.910156 91.339844 168.839844 C 94.183594 168.183594 97.101562 167.964844 100.019531 168.109375 C 101.113281 168.183594 102.136719 168.402344 103.085938 168.910156 C 102.574219 169.128906 102.136719 169.203125 101.625 169.273438 C 99.074219 169.785156 96.519531 170.296875 94.183594 171.460938 C 92.871094 172.117188 91.484375 172.625 90.027344 173.0625 C 89.296875 173.355469 88.496094 173.425781 87.691406 173.5 C 84.921875 173.71875 82.222656 174.15625 79.449219 173.9375 C 78.648438 173.863281 77.84375 174.082031 77.042969 174.15625 C 76.3125 174.230469 75.582031 174.300781 74.855469 174.300781 C 74.5625 174.300781 74.269531 174.15625 73.90625 174.011719 C 75.144531 172.992188 76.386719 172.042969 77.480469 171.097656 C 78.71875 170.003906 80.035156 169.054688 81.566406 168.402344 C 84.847656 167.015625 88.128906 165.632812 91.414062 164.320312 C 93.308594 163.59375 95.207031 163.519531 97.175781 163.957031 C 99.074219 164.394531 100.894531 165.121094 102.71875 165.851562 C 104.398438 166.507812 106.074219 167.089844 107.824219 167.671875 C 108.554688 167.890625 109.359375 168.109375 110.085938 168.253906 C 110.015625 168.546875 109.796875 168.546875 109.578125 168.546875 Z M 141.890625 190.617188 C 139.703125 190.765625 137.660156 191.273438 135.617188 192.003906 C 134.960938 192.222656 134.234375 192.292969 133.503906 192.367188 C 131.316406 192.441406 129.199219 192.003906 127.15625 191.347656 C 124.605469 190.617188 122.050781 189.890625 119.496094 189.160156 C 118.113281 188.796875 116.726562 188.578125 115.265625 188.214844 C 115.265625 188.140625 115.265625 188.140625 115.265625 188.070312 C 115.703125 187.996094 116.140625 187.921875 116.652344 187.851562 C 118.914062 187.632812 121.175781 187.414062 123.4375 187.195312 C 126.207031 186.976562 128.90625 186.613281 131.679688 187.121094 C 133.503906 187.414062 135.328125 187.703125 137.078125 188.140625 C 138.097656 188.359375 139.121094 188.578125 140.140625 189.234375 C 139.777344 189.378906 139.558594 189.453125 139.339844 189.527344 C 138.027344 189.746094 136.640625 189.890625 135.328125 190.109375 C 134.234375 190.253906 133.140625 190.398438 132.042969 190.617188 C 131.679688 190.691406 131.316406 190.910156 130.878906 191.054688 C 130.878906 191.128906 130.949219 191.203125 130.949219 191.273438 C 133.796875 190.984375 136.566406 191.054688 139.339844 190.398438 C 140.359375 190.183594 141.382812 190.035156 142.621094 190.398438 C 142.257812 190.546875 142.039062 190.617188 141.890625 190.617188 Z M 137.441406 305.351562 C 134.671875 303.164062 133.648438 299.597656 134.816406 295.808594 C 135.910156 292.164062 139.191406 288.378906 144.152344 287.941406 C 144.445312 287.941406 144.738281 287.941406 145.027344 287.941406 C 149.84375 287.941406 158.453125 291.144531 167.644531 309.941406 C 168.445312 311.542969 169.101562 313.074219 169.683594 314.53125 C 157.722656 317.808594 143.863281 310.378906 137.441406 305.351562 Z M 191.277344 166.652344 C 186.027344 142.539062 186.972656 126.441406 194.339844 115.953125 C 200.832031 106.699219 211.628906 102.914062 223.007812 98.980469 C 225.050781 98.25 227.167969 97.523438 229.210938 96.792969 C 252.917969 88.050781 254.15625 83.898438 256.417969 76.398438 C 256.566406 75.886719 256.710938 75.304688 256.929688 74.792969 C 259.628906 66.269531 263.859375 60.589844 278.304688 55.273438 C 289.683594 51.046875 296.320312 48.207031 299.53125 44.199219 C 298.363281 51.339844 293.113281 65.105469 271.082031 72.828125 C 254.886719 78.507812 253.792969 86.742188 252.773438 94.609375 C 251.75 102.183594 250.730469 110.050781 235.996094 116.609375 C 216.152344 125.347656 206.160156 133.433594 206.304688 140.5 C 206.378906 144.582031 209.953125 148.003906 216.734375 150.699219 C 220.019531 152.011719 221.550781 153.6875 221.476562 156.015625 C 221.1875 163.011719 206.378906 173.425781 193.539062 179.253906 C 193.027344 175.320312 192.226562 171.167969 191.277344 166.652344 Z M 172.238281 227.480469 C 165.601562 220.195312 162.828125 212.691406 164.140625 205.550781 C 166.183594 194.699219 176.980469 186.757812 186.246094 183.988281 C 188.140625 183.40625 190.109375 182.679688 192.226562 181.878906 C 196.894531 214.148438 187.265625 219.613281 172.238281 227.480469 Z M 310.984375 125.203125 C 308.359375 124.257812 306.316406 122.726562 305.148438 121.78125 C 306.316406 121.414062 307.410156 120.90625 308.429688 120.394531 C 308.867188 120.90625 309.671875 121.5625 310.765625 122.21875 C 310.839844 123.238281 310.910156 124.257812 310.984375 125.203125 Z M 310.109375 119.449219 C 310.398438 119.230469 310.691406 119.085938 310.910156 118.867188 C 310.910156 119.304688 310.839844 119.667969 310.839844 120.105469 C 310.546875 119.886719 310.328125 119.667969 310.109375 119.449219 Z M 267.652344 175.25 C 270.570312 175.25 272.90625 175.757812 274 177.140625 C 274.65625 177.945312 274.800781 178.378906 274.875 178.527344 C 274.292969 178.816406 271.882812 178.671875 270.058594 178.527344 C 268.675781 178.453125 267.144531 178.308594 265.683594 178.308594 C 266.558594 177.507812 267.214844 176.488281 267.652344 175.25 Z M 252.773438 177.507812 C 257.003906 176.632812 261.671875 175.613281 265.683594 175.320312 C 265.101562 176.488281 264.296875 177.289062 263.203125 177.796875 C 259.484375 179.621094 255.980469 178.964844 252.773438 177.507812 Z M 307.921875 186.539062 C 298.65625 203.730469 295.300781 214.367188 292.820312 222.089844 C 289.101562 233.890625 287.277344 239.789062 269.550781 254.140625 C 265.246094 257.636719 260.941406 260.1875 256.710938 262.007812 C 257.953125 260.914062 259.046875 259.605469 259.703125 258 C 261.453125 253.703125 259.921875 248.457031 255.179688 242.414062 C 248.613281 234.109375 248.25 230.394531 249.050781 228.71875 C 250 226.824219 253.28125 226.53125 255.980469 226.53125 C 256.636719 226.53125 257.222656 226.53125 257.730469 226.53125 C 258.390625 226.53125 258.898438 226.53125 259.410156 226.53125 C 261.453125 226.457031 263.421875 225.4375 264.152344 224.054688 C 264.515625 223.328125 264.515625 222.523438 264.078125 221.871094 C 262.984375 220.265625 259.628906 219.683594 254.15625 220.195312 C 241.539062 221.359375 236.941406 215.96875 236.871094 215.894531 L 236.796875 215.824219 C 234.535156 213.710938 233.585938 211.960938 234.023438 211.015625 C 235.265625 208.246094 246.351562 208.902344 252.992188 209.265625 C 260.066406 209.632812 262.328125 209.703125 262.839844 208.464844 C 262.984375 208.175781 263.128906 207.59375 262.472656 206.9375 C 260.722656 205.042969 260.648438 204.3125 260.648438 204.242188 C 261.964844 204.460938 267.652344 205.480469 271.738281 203.585938 C 275.675781 201.765625 284.796875 203.222656 284.941406 203.222656 L 288.660156 203.804688 L 285.597656 201.546875 C 270.5 190.472656 261.597656 193.386719 258.535156 195.207031 C 258.535156 194.988281 258.460938 194.84375 258.460938 194.625 C 257.953125 191.710938 257.367188 188.359375 257.511719 184.792969 C 257.585938 183.40625 258.023438 182.386719 258.898438 181.660156 C 261.234375 179.621094 266.121094 179.984375 269.988281 180.273438 C 273.488281 180.566406 275.824219 180.710938 276.625 179.328125 C 277.210938 178.234375 276.332031 176.925781 275.53125 175.976562 C 274.074219 174.15625 271.445312 173.5 268.308594 173.425781 C 269.988281 166.214844 267.214844 154.195312 264.371094 141.667969 C 262.109375 131.613281 259.703125 121.195312 259.703125 113.402344 C 259.703125 104.878906 266.121094 97.886719 271.59375 93.589844 C 283.703125 83.972656 299.75 79.382812 305.074219 80.550781 C 309.234375 81.496094 312.296875 82.734375 314.046875 85.648438 C 316.671875 90.019531 316.089844 98.394531 312.296875 111.800781 C 311.859375 113.328125 311.566406 114.785156 311.347656 116.171875 C 302.085938 125.421875 271.957031 121.707031 271.664062 121.632812 L 271.445312 123.457031 C 271.8125 123.527344 274.363281 123.820312 278.085938 124.039062 C 278.742188 125.058594 281.660156 129.28125 285.964844 132.195312 L 286.984375 130.667969 C 283.992188 128.628906 281.585938 125.785156 280.417969 124.109375 C 281.949219 124.183594 283.703125 124.257812 285.453125 124.257812 C 285.597656 124.257812 285.816406 124.257812 285.964844 124.257812 C 286.910156 125.640625 290.046875 129.792969 295.226562 131.539062 L 295.8125 129.792969 C 292.164062 128.480469 289.539062 125.785156 288.222656 124.183594 C 290.195312 124.109375 292.164062 124.039062 294.132812 123.820312 C 295.007812 125.128906 297.851562 128.261719 304.710938 130.085938 L 305.148438 128.335938 C 300.113281 127.023438 297.488281 124.910156 296.25 123.601562 C 298.65625 123.308594 300.988281 122.871094 303.179688 122.214844 C 304.199219 123.238281 307.042969 125.785156 311.277344 127.023438 C 311.859375 130.59375 312.953125 133.945312 314.046875 137.367188 C 317.839844 149.097656 321.78125 161.042969 307.921875 186.539062 Z M 307.921875 186.539062 " fill-opacity="1" fill-rule="nonzero"/></g><path fill="#ffffff" d="M 90.101562 168.984375 C 90.027344 168.984375 90.027344 168.984375 90.101562 168.984375 C 90.027344 169.054688 90.101562 168.984375 90.101562 168.984375 Z M 90.101562 168.984375 " fill-opacity="1" fill-rule="nonzero"/><path fill="#ffffff" d="M 89.296875 169.421875 C 89.515625 169.273438 89.808594 169.128906 90.027344 168.984375 C 89.734375 169.054688 89.445312 169.054688 89.152344 169.128906 C 89.222656 169.273438 89.222656 169.347656 89.296875 169.421875 Z M 89.296875 169.421875 " fill-opacity="1" fill-rule="nonzero"/></svg>