<svg xmlns="http://www.w3.org/2000/svg" xmlns:xlink="http://www.w3.org/1999/xlink" width="500" zoomAndPan="magnify" viewBox="0 0 375 374.999991" height="500" preserveAspectRatio="xMidYMid meet" version="1.0"><defs><clipPath id="121d778c7c"><path d="M 76.929688 13.261719 L 298.113281 13.261719 L 298.113281 362.011719 L 76.929688 362.011719 Z M 76.929688 13.261719 " clip-rule="nonzero"/></clipPath></defs><g clip-path="url(#121d778c7c)"><path fill="#131212" d="M 97.90625 360.851562 C 97.566406 360.851562 97.230469 360.855469 96.890625 360.855469 C 95.179688 360.855469 93.46875 360.855469 91.757812 360.859375 C 90.3125 360.863281 88.871094 360.863281 87.429688 360.867188 C 86.234375 360.871094 85.035156 360.875 83.839844 360.878906 C 82.867188 360.882812 81.894531 360.890625 80.921875 360.894531 C 80.511719 360.898438 80.101562 360.902344 79.691406 360.910156 C 79.503906 360.910156 79.289062 360.941406 79.101562 360.914062 C 78.738281 360.855469 78.808594 360.460938 78.804688 360.195312 C 78.804688 359.613281 78.804688 359.03125 78.800781 358.449219 C 78.800781 357.625 78.800781 356.796875 78.796875 355.972656 C 78.792969 355.003906 78.792969 354.035156 78.789062 353.0625 C 78.785156 352.050781 78.785156 351.035156 78.78125 350.019531 C 78.777344 349.058594 78.777344 348.09375 78.773438 347.136719 C 78.773438 346.328125 78.769531 345.515625 78.769531 344.707031 C 78.765625 344.152344 78.765625 343.589844 78.765625 343.035156 C 78.761719 342.828125 78.761719 342.617188 78.761719 342.410156 C 78.644531 294.925781 78.476562 230.421875 78.382812 199.066406 C 78.367188 193.730469 78.351562 188.398438 78.335938 183.0625 C 78.296875 169.34375 78.035156 155.613281 78.460938 141.941406 C 78.53125 139.664062 78.628906 137.386719 78.800781 135.113281 C 79.117188 130.863281 79.722656 126.644531 80.398438 122.433594 C 84.84375 94.671875 95.792969 69.621094 111.890625 50.386719 C 115.394531 46.199219 124.0625 37.855469 128.335938 34.558594 C 143.054688 23.207031 159.394531 16.652344 176.972656 15.039062 C 177.464844 14.996094 184.527344 14.617188 187.269531 14.617188 C 190.007812 14.617188 197.070312 14.996094 197.5625 15.039062 C 215.144531 16.652344 231.484375 23.207031 246.203125 34.558594 C 250.472656 37.855469 259.140625 46.199219 262.644531 50.386719 C 278.746094 69.621094 289.695312 94.671875 294.140625 122.433594 C 294.835938 126.785156 295.457031 131.144531 295.769531 135.539062 C 296.703125 148.691406 296.277344 161.992188 296.324219 175.234375 C 296.347656 181.347656 296.367188 187.460938 296.390625 193.574219 C 296.488281 220.976562 296.632812 277.578125 296.714844 319.359375 C 296.714844 320.339844 296.714844 321.316406 296.71875 322.296875 C 296.722656 324.199219 296.726562 326.097656 296.730469 328 C 296.734375 329.890625 296.738281 331.78125 296.742188 333.675781 C 296.746094 335.550781 296.75 337.429688 296.753906 339.308594 C 296.757812 341.164062 296.761719 343.023438 296.769531 344.878906 C 296.773438 346.710938 296.777344 348.542969 296.78125 350.375 C 296.785156 352.171875 296.789062 353.972656 296.796875 355.769531 C 296.796875 356.65625 296.800781 357.539062 296.800781 358.425781 C 296.804688 358.863281 296.808594 359.300781 296.804688 359.742188 C 296.804688 360.109375 296.496094 360.117188 296.195312 360.121094 C 295.851562 360.121094 295.511719 360.121094 295.167969 360.125 C 294.472656 360.125 293.78125 360.128906 293.085938 360.132812 C 291.199219 360.136719 289.308594 360.144531 287.417969 360.152344 C 285.546875 360.15625 283.671875 360.164062 281.800781 360.167969 C 279.945312 360.175781 278.09375 360.183594 276.238281 360.1875 C 274.402344 360.195312 272.570312 360.199219 270.734375 360.207031 C 268.921875 360.214844 267.109375 360.21875 265.292969 360.226562 C 263.503906 360.234375 261.710938 360.238281 259.921875 360.246094 C 258.152344 360.25 256.386719 360.257812 254.617188 360.261719 C 252.875 360.265625 251.132812 360.273438 249.386719 360.28125 C 247.671875 360.285156 245.957031 360.292969 244.238281 360.296875 C 242.550781 360.304688 240.863281 360.3125 239.171875 360.316406 C 237.511719 360.320312 235.851562 360.328125 234.191406 360.332031 C 232.5625 360.339844 230.933594 360.347656 229.300781 360.351562 C 227.703125 360.359375 226.105469 360.363281 224.507812 360.367188 C 222.941406 360.375 221.378906 360.378906 219.8125 360.382812 C 218.28125 360.390625 216.75 360.394531 215.21875 360.402344 C 213.722656 360.40625 212.226562 360.414062 210.730469 360.417969 C 209.273438 360.425781 207.8125 360.425781 206.355469 360.433594 C 204.933594 360.441406 203.511719 360.441406 202.089844 360.449219 C 200.710938 360.457031 199.328125 360.457031 197.945312 360.464844 C 196.605469 360.46875 195.265625 360.476562 193.925781 360.480469 C 192.625 360.484375 191.328125 360.492188 190.03125 360.492188 C 188.773438 360.5 187.519531 360.503906 186.265625 360.507812 C 185.054688 360.511719 183.84375 360.519531 182.632812 360.523438 C 181.46875 360.527344 180.304688 360.53125 179.140625 360.539062 C 178.023438 360.539062 176.90625 360.542969 175.789062 360.550781 C 174.722656 360.554688 173.652344 360.554688 172.585938 360.5625 C 171.566406 360.566406 170.550781 360.570312 169.53125 360.574219 C 168.566406 360.578125 167.597656 360.582031 166.628906 360.585938 C 165.714844 360.589844 164.804688 360.59375 163.886719 360.597656 C 163.027344 360.601562 162.167969 360.605469 161.308594 360.605469 C 160.503906 360.613281 159.699219 360.617188 158.894531 360.617188 C 158.144531 360.621094 157.398438 360.625 156.648438 360.628906 C 155.960938 360.632812 155.269531 360.632812 154.578125 360.636719 C 153.949219 360.640625 153.316406 360.644531 152.6875 360.648438 C 152.117188 360.648438 151.546875 360.652344 150.976562 360.65625 C 150.46875 360.65625 149.957031 360.660156 149.449219 360.664062 C 149.003906 360.664062 148.558594 360.667969 148.117188 360.667969 C 147.734375 360.671875 147.355469 360.671875 146.972656 360.675781 C 146.660156 360.675781 146.347656 360.679688 146.035156 360.683594 C 132.894531 360.765625 111.238281 360.847656 97.90625 360.851562 Z M 298.078125 344.289062 C 297.960938 296.804688 297.789062 232.300781 297.699219 200.949219 L 297.695312 199.507812 C 297.664062 188.746094 297.632812 177.980469 297.601562 167.214844 C 297.554688 151.765625 297.777344 136.269531 295.230469 121.042969 C 288.648438 81.742188 269.648438 49.027344 242.414062 30.121094 C 229.574219 21.210938 215.277344 15.785156 199.605469 13.875 C 196.875 13.546875 191.984375 13.261719 187.269531 13.261719 C 182.550781 13.261719 177.660156 13.546875 174.933594 13.875 C 159.261719 15.785156 144.964844 21.210938 132.125 30.121094 C 104.890625 49.027344 85.886719 81.742188 79.304688 121.042969 C 78.386719 126.535156 77.519531 132.046875 77.230469 137.613281 C 76.816406 145.585938 76.9375 153.46875 76.964844 161.425781 C 76.988281 167.925781 77.011719 174.421875 77.035156 180.921875 C 77.050781 184.511719 77.0625 188.101562 77.074219 191.691406 C 77.175781 219.09375 77.320312 275.695312 77.398438 317.476562 C 77.402344 319.378906 77.40625 321.28125 77.410156 323.183594 C 77.414062 325.078125 77.417969 326.976562 77.421875 328.871094 C 77.425781 330.757812 77.429688 332.644531 77.433594 334.527344 C 77.4375 336.394531 77.441406 338.265625 77.445312 340.132812 C 77.449219 341.980469 77.453125 343.828125 77.460938 345.667969 C 77.464844 347.484375 77.46875 349.300781 77.472656 351.117188 C 77.476562 352.898438 77.480469 354.675781 77.488281 356.457031 C 77.488281 357.332031 77.492188 358.210938 77.496094 359.082031 C 77.496094 359.515625 77.496094 359.949219 77.5 360.382812 C 77.5 360.78125 77.433594 361.167969 77.683594 361.5 C 77.871094 361.742188 78.214844 361.996094 78.53125 362.015625 C 78.640625 362.023438 78.753906 362.015625 78.863281 362.015625 C 79.101562 362.015625 79.335938 362.015625 79.570312 362.015625 C 80.082031 362.019531 80.59375 362.019531 81.101562 362.019531 C 81.667969 362.019531 82.234375 362.023438 82.800781 362.023438 C 83.417969 362.023438 84.039062 362.023438 84.660156 362.023438 C 85.328125 362.023438 86 362.023438 86.671875 362.023438 C 87.394531 362.023438 88.117188 362.023438 88.839844 362.023438 C 89.613281 362.023438 90.386719 362.023438 91.15625 362.023438 C 91.980469 362.019531 92.800781 362.019531 93.621094 362.019531 C 94.492188 362.019531 95.363281 362.019531 96.230469 362.015625 C 97.144531 362.015625 98.0625 362.015625 98.976562 362.011719 C 99.941406 362.011719 100.902344 362.011719 101.863281 362.011719 C 102.867188 362.011719 103.875 362.007812 104.878906 362.007812 C 105.929688 362.003906 106.980469 362.003906 108.027344 362 C 109.121094 362 110.210938 361.996094 111.304688 361.992188 C 112.4375 361.992188 113.566406 361.992188 114.699219 361.992188 C 115.875 361.988281 117.046875 361.984375 118.21875 361.980469 C 119.429688 361.980469 120.640625 361.976562 121.851562 361.976562 C 123.101562 361.972656 124.351562 361.96875 125.601562 361.96875 C 126.886719 361.964844 128.171875 361.964844 129.457031 361.960938 C 130.78125 361.957031 132.101562 361.953125 133.421875 361.949219 C 134.777344 361.945312 136.132812 361.945312 137.488281 361.941406 C 138.878906 361.9375 140.265625 361.933594 141.65625 361.929688 C 143.078125 361.925781 144.5 361.925781 145.921875 361.921875 C 147.375 361.917969 148.824219 361.914062 150.277344 361.910156 C 151.757812 361.90625 153.242188 361.902344 154.722656 361.898438 C 156.234375 361.894531 157.746094 361.890625 159.257812 361.886719 C 160.796875 361.882812 162.335938 361.878906 163.875 361.875 C 165.4375 361.871094 167.003906 361.863281 168.570312 361.863281 C 170.160156 361.859375 171.75 361.851562 173.339844 361.847656 C 174.957031 361.84375 176.570312 361.839844 178.1875 361.835938 C 179.824219 361.832031 181.460938 361.828125 183.101562 361.820312 C 184.761719 361.816406 186.421875 361.8125 188.082031 361.808594 C 189.761719 361.800781 191.445312 361.796875 193.125 361.792969 C 194.828125 361.785156 196.527344 361.785156 198.230469 361.777344 C 199.949219 361.773438 201.667969 361.769531 203.390625 361.761719 C 205.128906 361.757812 206.863281 361.75 208.601562 361.746094 C 210.355469 361.742188 212.113281 361.734375 213.863281 361.730469 C 215.636719 361.726562 217.40625 361.71875 219.175781 361.714844 C 220.957031 361.707031 222.742188 361.703125 224.523438 361.699219 C 226.324219 361.691406 228.121094 361.683594 229.917969 361.679688 C 231.726562 361.675781 233.535156 361.671875 235.34375 361.664062 C 237.164062 361.65625 238.984375 361.652344 240.804688 361.644531 C 242.632812 361.636719 244.464844 361.636719 246.292969 361.628906 C 248.132812 361.621094 249.96875 361.617188 251.808594 361.609375 C 253.65625 361.605469 255.503906 361.597656 257.347656 361.59375 C 259.199219 361.585938 261.054688 361.578125 262.90625 361.574219 C 264.761719 361.566406 266.621094 361.558594 268.480469 361.554688 C 270.339844 361.546875 272.203125 361.542969 274.066406 361.535156 C 275.933594 361.527344 277.796875 361.523438 279.664062 361.515625 C 281.53125 361.507812 283.398438 361.503906 285.265625 361.496094 C 287.132812 361.492188 289 361.484375 290.871094 361.476562 C 292.738281 361.472656 294.605469 361.464844 296.472656 361.460938 C 296.765625 361.460938 296.988281 361.457031 297.25 361.3125 C 297.476562 361.183594 297.671875 361.003906 297.816406 360.785156 C 297.921875 360.621094 297.996094 360.4375 298.039062 360.246094 C 298.125 359.847656 298.117188 359.4375 298.113281 359.023438 C 298.113281 358.566406 298.113281 358.109375 298.109375 357.652344 C 298.109375 356.558594 298.105469 355.464844 298.101562 354.363281 C 298.097656 353.183594 298.097656 352.003906 298.09375 350.820312 C 298.089844 349.742188 298.089844 348.660156 298.085938 347.582031 C 298.085938 346.796875 298.082031 346.007812 298.078125 345.21875 C 298.078125 344.910156 298.078125 344.601562 298.078125 344.289062 " fill-opacity="1" fill-rule="nonzero"/></g></svg>