<svg xmlns="http://www.w3.org/2000/svg" xmlns:xlink="http://www.w3.org/1999/xlink" width="1080" zoomAndPan="magnify" viewBox="0 0 810 225" height="300" preserveAspectRatio="xMidYMid meet" version="1.0"><defs><g/></defs><g fill="#191617" fill-opacity="1"><g transform="translate(37.58203, 143.896989)"><g><path d="M 112.3125 -32.890625 C 111.949219 -33.742188 110.972656 -34.230469 110.121094 -33.863281 C 94.773438 -27.164062 81.738281 -25.945312 70.164062 -24.851562 C 65.78125 -24.363281 61.636719 -23.996094 57.742188 -23.386719 L 58.347656 -24.121094 C 60.542969 -27.773438 63.101562 -31.183594 65.292969 -34.71875 C 67.121094 -37.882812 69.3125 -42.636719 67.121094 -45.925781 C 66.265625 -47.386719 64.5625 -48.359375 62.492188 -48.726562 C 59.324219 -49.335938 56.523438 -48.847656 53.71875 -48.605469 C 53.71875 -48.605469 53.597656 -48.605469 53.597656 -48.605469 C 57.253906 -50.917969 60.785156 -53.964844 64.074219 -56.765625 C 65.660156 -58.105469 67 -59.8125 68.214844 -61.273438 C 69.554688 -63.101562 69.800781 -64.804688 68.824219 -66.265625 C 67.484375 -68.460938 65.050781 -67.730469 63.953125 -67.484375 C 61.761719 -66.875 59.445312 -66.023438 57.132812 -64.925781 C 48.480469 -60.90625 40.6875 -55.425781 34.230469 -50.675781 C 25.582031 -44.339844 17.417969 -36.789062 10.234375 -30.089844 C 9.867188 -29.722656 9.5 -29.355469 9.136719 -29.113281 C 9.5 -29.601562 9.867188 -30.089844 10.234375 -30.574219 C 11.816406 -32.769531 13.398438 -34.960938 15.105469 -37.152344 C 24.851562 -49.335938 37.519531 -59.8125 54.207031 -71.261719 C 58.472656 -74.183594 55.425781 -76.5 52.257812 -73.941406 C 47.386719 -70.164062 42.390625 -67.121094 37.761719 -63.464844 C 23.265625 -52.378906 12.058594 -40.199219 3.410156 -26.070312 C 2.558594 -24.972656 1.21875 -22.65625 2.558594 -21.5625 C 4.140625 -20.222656 6.210938 -22.292969 7.308594 -23.144531 C 12.179688 -27.652344 17.054688 -31.792969 21.683594 -36.179688 C 32.769531 -46.046875 43.121094 -53.597656 53.476562 -59.324219 C 56.15625 -60.785156 58.835938 -62.003906 63.101562 -63.832031 C 64.074219 -64.195312 64.925781 -64.5625 66.023438 -64.195312 C 65.902344 -61.882812 59.566406 -57.132812 58.105469 -56.035156 C 54.085938 -53.113281 50.066406 -50.1875 46.167969 -47.386719 C 44.339844 -46.046875 42.511719 -44.828125 40.6875 -43.488281 C 39.957031 -42.878906 37.882812 -41.296875 38.859375 -40.320312 C 39.957031 -39.222656 40.929688 -39.589844 41.90625 -40.320312 C 45.195312 -42.636719 49.089844 -44.21875 54.328125 -45.316406 C 56.644531 -45.800781 59.324219 -46.289062 62.003906 -45.558594 C 66.753906 -44.097656 63.953125 -38.617188 62.246094 -36.058594 C 59.6875 -31.671875 56.886719 -28.140625 54.453125 -24.484375 C 53.71875 -23.511719 52.867188 -22.78125 51.527344 -22.414062 C 45.679688 -20.953125 40.199219 -18.515625 34.960938 -15.347656 C 32.523438 -13.886719 30.089844 -11.9375 27.285156 -9.5 C 23.996094 -5.847656 20.953125 1.21875 28.503906 1.21875 C 29.84375 1.097656 31.183594 0.730469 32.402344 0.121094 C 34.59375 -1.097656 36.421875 -2.191406 38.128906 -3.410156 C 42.757812 -6.945312 47.265625 -11.085938 51.527344 -15.957031 L 54.207031 -19.125 C 59.203125 -20.34375 64.683594 -20.832031 70.410156 -21.4375 C 82.226562 -22.535156 95.746094 -23.753906 111.460938 -30.699219 C 112.3125 -31.0625 112.679688 -32.039062 112.3125 -32.890625 Z M 32.523438 -3.65625 C 31.429688 -3.046875 25.824219 -0.488281 27.285156 -3.898438 C 29.113281 -7.1875 31.914062 -9.746094 34.839844 -11.449219 C 38.25 -13.277344 41.78125 -14.863281 45.195312 -16.566406 C 46.289062 -17.054688 47.386719 -17.542969 48.480469 -18.027344 C 43.121094 -11.574219 38.007812 -6.945312 32.523438 -3.65625 Z M 32.523438 -3.65625 "/></g></g></g><g fill="#191617" fill-opacity="1"><g transform="translate(147.693437, 143.896989)"><g><path d="M 65.902344 -32.769531 C 65.535156 -33.621094 64.5625 -34.109375 63.710938 -33.742188 C 62.734375 -33.378906 56.644531 -31.183594 56.035156 -30.941406 C 35.082031 -23.511719 21.804688 -24.851562 15.46875 -26.554688 C 19.367188 -32.039062 20.222656 -40.199219 15.59375 -45.4375 C 11.816406 -50.066406 3.777344 -48.96875 0.851562 -43.851562 C -1.339844 -40.808594 -0.730469 -36.789062 0.367188 -33.378906 C -3.289062 -29.84375 -7.1875 -26.191406 -9.257812 -21.316406 C -10.597656 -18.515625 -8.039062 -15.226562 -4.996094 -15.226562 C 1.949219 -14.738281 8.160156 -18.882812 12.789062 -23.632812 L 12.914062 -23.753906 C 15.835938 -22.78125 20.34375 -21.804688 26.675781 -21.804688 C 33.621094 -21.804688 42.511719 -22.902344 53.71875 -26.554688 C 54.085938 -26.675781 64.804688 -30.453125 64.925781 -30.574219 C 65.78125 -30.820312 66.265625 -31.792969 65.902344 -32.769531 Z M 15.105469 -38.617188 C 16.203125 -34.59375 14.007812 -30.941406 11.816406 -27.773438 C 8.769531 -29.113281 6.699219 -30.699219 4.996094 -32.644531 C 7.796875 -35.8125 5.847656 -36.910156 3.046875 -35.449219 C 1.339844 -46.046875 13.765625 -48.480469 15.105469 -38.617188 Z M -6.457031 -19.003906 C -4.628906 -23.511719 -1.21875 -27.042969 2.191406 -30.453125 C 4.386719 -28.382812 6.820312 -26.554688 9.378906 -24.972656 C 4.996094 -21.195312 -0.488281 -17.785156 -6.457031 -19.003906 Z M -6.457031 -19.003906 "/></g></g></g><g fill="#191617" fill-opacity="1"><g transform="translate(211.397269, 143.896989)"><g><path d="M 65.902344 -32.769531 C 65.535156 -33.621094 64.5625 -34.109375 63.710938 -33.742188 C 62.734375 -33.378906 56.644531 -31.183594 56.035156 -30.941406 C 35.082031 -23.511719 21.804688 -24.851562 15.46875 -26.554688 C 19.367188 -32.039062 20.222656 -40.199219 15.59375 -45.4375 C 11.816406 -50.066406 3.777344 -48.96875 0.851562 -43.851562 C -1.339844 -40.808594 -0.730469 -36.789062 0.367188 -33.378906 C -3.289062 -29.84375 -7.1875 -26.191406 -9.257812 -21.316406 C -10.597656 -18.515625 -8.039062 -15.226562 -4.996094 -15.226562 C 1.949219 -14.738281 8.160156 -18.882812 12.789062 -23.632812 L 12.914062 -23.753906 C 15.835938 -22.78125 20.34375 -21.804688 26.675781 -21.804688 C 33.621094 -21.804688 42.511719 -22.902344 53.71875 -26.554688 C 54.085938 -26.675781 64.804688 -30.453125 64.925781 -30.574219 C 65.78125 -30.820312 66.265625 -31.792969 65.902344 -32.769531 Z M 15.105469 -38.617188 C 16.203125 -34.59375 14.007812 -30.941406 11.816406 -27.773438 C 8.769531 -29.113281 6.699219 -30.699219 4.996094 -32.644531 C 7.796875 -35.8125 5.847656 -36.910156 3.046875 -35.449219 C 1.339844 -46.046875 13.765625 -48.480469 15.105469 -38.617188 Z M -6.457031 -19.003906 C -4.628906 -23.511719 -1.21875 -27.042969 2.191406 -30.453125 C 4.386719 -28.382812 6.820312 -26.554688 9.378906 -24.972656 C 4.996094 -21.195312 -0.488281 -17.785156 -6.457031 -19.003906 Z M -6.457031 -19.003906 "/></g></g></g><g fill="#191617" fill-opacity="1"><g transform="translate(275.101101, 143.896989)"><g><path d="M 87.21875 -32.769531 C 86.976562 -33.621094 86 -34.109375 85.027344 -33.742188 C 80.640625 -32.160156 76.378906 -30.574219 72.359375 -29.113281 C 72.359375 -29.113281 50.917969 -21.195312 46.410156 -19.367188 C 30.453125 -13.15625 13.886719 -6.578125 9.5 -8.160156 C 8.527344 -8.527344 7.917969 -9.015625 7.550781 -9.867188 C 6.578125 -12.546875 9.015625 -17.664062 10.355469 -19.976562 C 17.417969 -21.683594 24.726562 -23.144531 31.183594 -26.921875 C 33.621094 -28.503906 36.667969 -31.0625 35.449219 -34.351562 C 32.402344 -37.761719 27.53125 -35.933594 23.996094 -34.71875 C 14.128906 -30.941406 4.507812 -25.824219 -3.167969 -18.273438 C -1.21875 -22.902344 0.609375 -27.894531 3.53125 -29.722656 C 17.417969 -38.738281 32.402344 -46.046875 46.289062 -55.183594 C 50.917969 -58.347656 55.914062 -61.636719 59.082031 -66.390625 C 60.90625 -69.070312 60.664062 -73.453125 57.496094 -74.917969 C 51.648438 -77.839844 45.195312 -74.917969 39.832031 -72.359375 C 15.347656 -58.59375 -4.019531 -36.058594 -9.136719 -9.746094 C -9.257812 -8.527344 -8.285156 -8.039062 -7.1875 -8.769531 C -4.871094 -11.085938 -1.582031 -17.054688 5.96875 -19.003906 C 4.628906 -16.078125 3.289062 -11.9375 4.386719 -8.648438 C 5.480469 -5.601562 8.527344 -4.507812 11.085938 -4.507812 C 17.542969 -4.507812 29.722656 -9.136719 47.628906 -16.203125 C 54.085938 -18.757812 86.125 -30.453125 86.246094 -30.574219 C 87.097656 -30.820312 87.585938 -31.792969 87.21875 -32.769531 Z M 32.523438 -33.011719 C 26.433594 -26.3125 16.566406 -25.214844 8.160156 -23.144531 C 15.957031 -27.164062 23.632812 -32.160156 32.523438 -33.011719 Z M 42.390625 -69.679688 C 47.019531 -71.75 52.988281 -74.671875 57.253906 -70.652344 C 54.695312 -64.683594 48.847656 -61.152344 43.609375 -57.617188 C 30.941406 -49.335938 17.417969 -42.390625 4.507812 -34.59375 C 13.765625 -49.335938 26.921875 -61.761719 42.390625 -69.679688 Z M 42.390625 -69.679688 "/></g></g></g><g fill="#191617" fill-opacity="1"><g transform="translate(360.120743, 143.896989)"><g><path d="M 73.210938 -32.890625 C 72.84375 -33.742188 71.871094 -34.230469 70.894531 -33.863281 C 65.292969 -32.039062 58.347656 -29.234375 52.257812 -28.015625 C 42.390625 -25.703125 32.28125 -25.703125 22.171875 -24.726562 C 23.023438 -27.773438 24.363281 -32.28125 20.707031 -33.988281 C 14.738281 -35.328125 9.015625 -31.550781 2.921875 -31.914062 C 4.996094 -38.128906 9.746094 -43.367188 15.957031 -45.4375 C 15.46875 -43.730469 14.984375 -41.417969 17.542969 -41.171875 C 19.246094 -42.511719 20.832031 -44.828125 19.613281 -46.898438 C 17.90625 -49.214844 14.617188 -48.847656 12.304688 -47.75 C 7.066406 -45.316406 2.921875 -40.6875 0.488281 -35.328125 C -0.730469 -33.132812 -0.367188 -29.355469 2.679688 -28.75 C 8.527344 -27.894531 14.007812 -30.941406 19.855469 -31.0625 C 19.492188 -29.234375 19.125 -27.410156 18.757812 -25.582031 C 13.277344 -24.605469 7.066406 -22.65625 4.628906 -17.296875 C 3.53125 -14.863281 5.726562 -12.058594 8.285156 -12.179688 C 13.886719 -12.058594 17.175781 -17.417969 20.222656 -21.316406 C 33.011719 -21.804688 46.167969 -22.65625 58.59375 -25.945312 C 60.90625 -26.675781 69.3125 -29.355469 72.113281 -30.574219 C 73.089844 -30.941406 73.453125 -31.914062 73.210938 -32.890625 Z M 8.039062 -15.105469 C 8.648438 -19.003906 12.789062 -20.34375 15.957031 -21.5625 C 14.007812 -18.636719 11.449219 -16.203125 8.039062 -15.105469 Z M 8.039062 -15.105469 "/></g></g></g><g fill="#191617" fill-opacity="1"><g transform="translate(431.01103, 143.896989)"><g/></g></g><g fill="#191617" fill-opacity="1"><g transform="translate(518.101343, 143.896989)"><g><path d="M 19.125 2.4375 C 23.875 2.4375 28.871094 1.097656 33.378906 -1.828125 C 33.5 -0.488281 33.742188 0.367188 33.863281 0.972656 C 33.988281 1.949219 34.960938 2.558594 35.8125 2.316406 C 36.789062 2.191406 37.398438 1.21875 37.152344 0.367188 C 37.152344 0.242188 36.910156 -1.339844 36.421875 -4.140625 C 40.5625 -7.796875 43.851562 -12.914062 45.558594 -19.855469 C 45.800781 -20.707031 45.316406 -21.683594 44.339844 -21.925781 C 43.488281 -22.171875 42.511719 -21.5625 42.269531 -20.707031 C 40.929688 -15.46875 38.617188 -11.449219 35.691406 -8.285156 C 34.960938 -13.765625 33.863281 -21.074219 33.132812 -28.625 C 32.160156 -37.761719 31.914062 -44.585938 32.160156 -49.578125 C 35.933594 -53.234375 39.46875 -56.277344 42.027344 -58.472656 C 44.828125 -60.785156 46.167969 -63.953125 45.558594 -66.753906 C 45.070312 -68.703125 43.851562 -70.042969 42.027344 -70.53125 C 40.441406 -71.019531 37.03125 -70.894531 32.523438 -65.902344 C 30.210938 -63.34375 29.113281 -57.863281 28.75 -51.164062 C 17.054688 -39.957031 0.367188 -21.804688 1.460938 -10.234375 C 2.191406 -3.410156 8.527344 1.707031 17.296875 2.316406 C 17.90625 2.4375 18.515625 2.4375 19.125 2.4375 Z M 28.625 -46.289062 C 28.625 -32.28125 31.0625 -15.105469 32.644531 -5.601562 C 28.015625 -2.070312 22.535156 -0.730469 17.542969 -1.097656 C 11.695312 -1.582031 5.480469 -4.628906 4.871094 -10.597656 C 4.019531 -19.492188 17.054688 -34.71875 28.625 -46.289062 Z M 40.6875 -67.242188 C 40.929688 -67.242188 41.050781 -67.242188 41.171875 -67.242188 C 41.78125 -67.121094 42.027344 -66.511719 42.148438 -66.023438 C 42.390625 -64.804688 41.78125 -62.734375 39.832031 -61.152344 C 39.347656 -60.785156 36.542969 -58.347656 32.402344 -54.574219 C 33.011719 -60.175781 34.230469 -62.613281 35.082031 -63.585938 C 37.519531 -66.390625 39.589844 -67.242188 40.6875 -67.242188 Z M 40.6875 -67.242188 "/></g></g></g><g fill="#191617" fill-opacity="1"><g transform="translate(565.726935, 143.896989)"><g/></g></g><g fill="#191617" fill-opacity="1"><g transform="translate(652.817248, 143.896989)"><g><path d="M 57.984375 -32.769531 C 57.742188 -33.742188 56.765625 -34.109375 55.792969 -33.863281 C 47.507812 -30.699219 39.710938 -28.015625 32.523438 -25.582031 C 25.214844 -23.265625 9.257812 -19.246094 1.097656 -21.074219 C 1.097656 -21.195312 -4.75 -22.292969 -0.242188 -28.015625 C 3.410156 -33.011719 8.40625 -37.03125 13.519531 -40.441406 C 17.054688 -42.636719 21.195312 -45.195312 25.582031 -43.976562 C 25.460938 -42.027344 24.363281 -37.882812 27.894531 -38.859375 C 30.574219 -41.90625 28.871094 -47.386719 24.605469 -47.75 C 18.515625 -48.117188 13.15625 -44.585938 8.40625 -41.171875 C 3.289062 -37.152344 -2.070312 -32.890625 -4.871094 -26.921875 C -5.96875 -24.726562 -5.847656 -21.804688 -4.261719 -19.976562 C -1.707031 -17.664062 2.070312 -17.054688 6.210938 -17.175781 C 9.746094 -17.296875 14.007812 -17.664062 18.882812 -18.636719 C 24.121094 -19.613281 34.59375 -22.65625 34.59375 -22.65625 C 47.019531 -26.921875 56.886719 -30.574219 57.007812 -30.574219 C 57.863281 -30.941406 58.347656 -31.914062 57.984375 -32.769531 Z M 57.984375 -32.769531 "/></g></g></g><g fill="#191617" fill-opacity="1"><g transform="translate(708.725571, 143.896989)"><g><path d="M 65.902344 -32.769531 C 65.535156 -33.621094 64.5625 -34.109375 63.710938 -33.742188 C 62.734375 -33.378906 56.644531 -31.183594 56.035156 -30.941406 C 35.082031 -23.511719 21.804688 -24.851562 15.46875 -26.554688 C 19.367188 -32.039062 20.222656 -40.199219 15.59375 -45.4375 C 11.816406 -50.066406 3.777344 -48.96875 0.851562 -43.851562 C -1.339844 -40.808594 -0.730469 -36.789062 0.367188 -33.378906 C -3.289062 -29.84375 -7.1875 -26.191406 -9.257812 -21.316406 C -10.597656 -18.515625 -8.039062 -15.226562 -4.996094 -15.226562 C 1.949219 -14.738281 8.160156 -18.882812 12.789062 -23.632812 L 12.914062 -23.753906 C 15.835938 -22.78125 20.34375 -21.804688 26.675781 -21.804688 C 33.621094 -21.804688 42.511719 -22.902344 53.71875 -26.554688 C 54.085938 -26.675781 64.804688 -30.453125 64.925781 -30.574219 C 65.78125 -30.820312 66.265625 -31.792969 65.902344 -32.769531 Z M 15.105469 -38.617188 C 16.203125 -34.59375 14.007812 -30.941406 11.816406 -27.773438 C 8.769531 -29.113281 6.699219 -30.699219 4.996094 -32.644531 C 7.796875 -35.8125 5.847656 -36.910156 3.046875 -35.449219 C 1.339844 -46.046875 13.765625 -48.480469 15.105469 -38.617188 Z M -6.457031 -19.003906 C -4.628906 -23.511719 -1.21875 -27.042969 2.191406 -30.453125 C 4.386719 -28.382812 6.820312 -26.554688 9.378906 -24.972656 C 4.996094 -21.195312 -0.488281 -17.785156 -6.457031 -19.003906 Z M -6.457031 -19.003906 "/></g></g></g></svg>