<svg xmlns="http://www.w3.org/2000/svg" xmlns:xlink="http://www.w3.org/1999/xlink" width="500" zoomAndPan="magnify" viewBox="0 0 375 374.999991" height="500" preserveAspectRatio="xMidYMid meet" version="1.0"><defs><clipPath id="1308c03a77"><path d="M 3 15 L 355 15 L 355 329 L 3 329 Z M 3 15 " clip-rule="nonzero"/></clipPath><clipPath id="48a7339653"><path d="M 86.394531 -16.5 L 407.1875 99.878906 L 291.320312 419.261719 L -29.472656 302.882812 Z M 86.394531 -16.5 " clip-rule="nonzero"/></clipPath><clipPath id="2db6f4d310"><path d="M 86.394531 -16.5 L 407.1875 99.878906 L 291.320312 419.261719 L -29.472656 302.882812 Z M 86.394531 -16.5 " clip-rule="nonzero"/></clipPath><clipPath id="2b847a92cd"><path d="M 86.394531 -16.5 L 407.1875 99.878906 L 291.320312 419.261719 L -29.472656 302.882812 Z M 86.394531 -16.5 " clip-rule="nonzero"/></clipPath><clipPath id="7875e2698c"><path d="M 9 19 L 356 19 L 356 330 L 9 330 Z M 9 19 " clip-rule="nonzero"/></clipPath><clipPath id="466674edee"><path d="M 86.394531 -16.5 L 407.1875 99.878906 L 291.320312 419.261719 L -29.472656 302.882812 Z M 86.394531 -16.5 " clip-rule="nonzero"/></clipPath><clipPath id="9405b040fd"><path d="M 86.394531 -16.5 L 407.1875 99.878906 L 291.320312 419.261719 L -29.472656 302.882812 Z M 86.394531 -16.5 " clip-rule="nonzero"/></clipPath><clipPath id="0f33936f4c"><path d="M 86.394531 -16.5 L 407.1875 99.878906 L 291.320312 419.261719 L -29.472656 302.882812 Z M 86.394531 -16.5 " clip-rule="nonzero"/></clipPath><clipPath id="5fe942e746"><path d="M 14 22 L 357 22 L 357 330 L 14 330 Z M 14 22 " clip-rule="nonzero"/></clipPath><clipPath id="2a7c5f9ff1"><path d="M 86.394531 -16.5 L 407.1875 99.878906 L 291.320312 419.261719 L -29.472656 302.882812 Z M 86.394531 -16.5 " clip-rule="nonzero"/></clipPath><clipPath id="aace72d1b4"><path d="M 86.394531 -16.5 L 407.1875 99.878906 L 291.320312 419.261719 L -29.472656 302.882812 Z M 86.394531 -16.5 " clip-rule="nonzero"/></clipPath><clipPath id="5aa051c261"><path d="M 86.394531 -16.5 L 407.1875 99.878906 L 291.320312 419.261719 L -29.472656 302.882812 Z M 86.394531 -16.5 " clip-rule="nonzero"/></clipPath><clipPath id="ed6907e707"><path d="M 19 25 L 359 25 L 359 332 L 19 332 Z M 19 25 " clip-rule="nonzero"/></clipPath><clipPath id="bb40f9f729"><path d="M 86.394531 -16.5 L 407.1875 99.878906 L 291.320312 419.261719 L -29.472656 302.882812 Z M 86.394531 -16.5 " clip-rule="nonzero"/></clipPath><clipPath id="2200a769c2"><path d="M 86.394531 -16.5 L 407.1875 99.878906 L 291.320312 419.261719 L -29.472656 302.882812 Z M 86.394531 -16.5 " clip-rule="nonzero"/></clipPath><clipPath id="8e086823f1"><path d="M 86.394531 -16.5 L 407.1875 99.878906 L 291.320312 419.261719 L -29.472656 302.882812 Z M 86.394531 -16.5 " clip-rule="nonzero"/></clipPath><clipPath id="c04a6b0a35"><path d="M 23 28 L 360 28 L 360 335 L 23 335 Z M 23 28 " clip-rule="nonzero"/></clipPath><clipPath id="e7d4c218e9"><path d="M 86.394531 -16.5 L 407.1875 99.878906 L 291.320312 419.261719 L -29.472656 302.882812 Z M 86.394531 -16.5 " clip-rule="nonzero"/></clipPath><clipPath id="518802c171"><path d="M 86.394531 -16.5 L 407.1875 99.878906 L 291.320312 419.261719 L -29.472656 302.882812 Z M 86.394531 -16.5 " clip-rule="nonzero"/></clipPath><clipPath id="af6ff1f86f"><path d="M 86.394531 -16.5 L 407.1875 99.878906 L 291.320312 419.261719 L -29.472656 302.882812 Z M 86.394531 -16.5 " clip-rule="nonzero"/></clipPath><clipPath id="2c015f7626"><path d="M 27 31 L 362 31 L 362 338 L 27 338 Z M 27 31 " clip-rule="nonzero"/></clipPath><clipPath id="921dde3c33"><path d="M 86.394531 -16.5 L 407.1875 99.878906 L 291.320312 419.261719 L -29.472656 302.882812 Z M 86.394531 -16.5 " clip-rule="nonzero"/></clipPath><clipPath id="e2da2abca8"><path d="M 86.394531 -16.5 L 407.1875 99.878906 L 291.320312 419.261719 L -29.472656 302.882812 Z M 86.394531 -16.5 " clip-rule="nonzero"/></clipPath><clipPath id="2f79c19dd0"><path d="M 86.394531 -16.5 L 407.1875 99.878906 L 291.320312 419.261719 L -29.472656 302.882812 Z M 86.394531 -16.5 " clip-rule="nonzero"/></clipPath><clipPath id="3fd4b5d0fe"><path d="M 31 34 L 365 34 L 365 342 L 31 342 Z M 31 34 " clip-rule="nonzero"/></clipPath><clipPath id="26799b41bb"><path d="M 86.394531 -16.5 L 407.1875 99.878906 L 291.320312 419.261719 L -29.472656 302.882812 Z M 86.394531 -16.5 " clip-rule="nonzero"/></clipPath><clipPath id="ac0fdc8ee1"><path d="M 86.394531 -16.5 L 407.1875 99.878906 L 291.320312 419.261719 L -29.472656 302.882812 Z M 86.394531 -16.5 " clip-rule="nonzero"/></clipPath><clipPath id="dabc1ee5ab"><path d="M 86.394531 -16.5 L 407.1875 99.878906 L 291.320312 419.261719 L -29.472656 302.882812 Z M 86.394531 -16.5 " clip-rule="nonzero"/></clipPath><clipPath id="4a7bddcc11"><path d="M 34 37 L 368 37 L 368 347 L 34 347 Z M 34 37 " clip-rule="nonzero"/></clipPath><clipPath id="9b5f3792c9"><path d="M 86.394531 -16.5 L 407.1875 99.878906 L 291.320312 419.261719 L -29.472656 302.882812 Z M 86.394531 -16.5 " clip-rule="nonzero"/></clipPath><clipPath id="5fff35d541"><path d="M 86.394531 -16.5 L 407.1875 99.878906 L 291.320312 419.261719 L -29.472656 302.882812 Z M 86.394531 -16.5 " clip-rule="nonzero"/></clipPath><clipPath id="19cc939ae6"><path d="M 86.394531 -16.5 L 407.1875 99.878906 L 291.320312 419.261719 L -29.472656 302.882812 Z M 86.394531 -16.5 " clip-rule="nonzero"/></clipPath><clipPath id="1e13f15bff"><path d="M 38 40 L 371 40 L 371 352 L 38 352 Z M 38 40 " clip-rule="nonzero"/></clipPath><clipPath id="a729c67ca8"><path d="M 86.394531 -16.5 L 407.1875 99.878906 L 291.320312 419.261719 L -29.472656 302.882812 Z M 86.394531 -16.5 " clip-rule="nonzero"/></clipPath><clipPath id="89d181a9a9"><path d="M 86.394531 -16.5 L 407.1875 99.878906 L 291.320312 419.261719 L -29.472656 302.882812 Z M 86.394531 -16.5 " clip-rule="nonzero"/></clipPath><clipPath id="6f46d87050"><path d="M 86.394531 -16.5 L 407.1875 99.878906 L 291.320312 419.261719 L -29.472656 302.882812 Z M 86.394531 -16.5 " clip-rule="nonzero"/></clipPath></defs><g clip-path="url(#1308c03a77)"><g clip-path="url(#48a7339653)"><g clip-path="url(#2db6f4d310)"><g clip-path="url(#2b847a92cd)"><path fill="#231f20" d="M 33.453125 324.925781 C 25.398438 322.003906 18.6875 317.578125 13.878906 311.851562 C 5.917969 302.3125 2.484375 288.085938 4.195312 271.738281 C 6.796875 247.117188 20.199219 222.03125 38.386719 207.761719 C 48.457031 199.867188 59.394531 195.828125 72.777344 195.03125 C 79.773438 194.621094 87.289062 195.078125 95.359375 195.976562 L 91.882812 193.160156 C 76.292969 180.734375 60.195312 167.84375 52.234375 144.367188 C 44.710938 122.203125 45.941406 95.011719 55.582031 69.757812 C 60.109375 57.820312 66.375 46.910156 73.707031 38.222656 C 81.492188 28.9375 90.179688 22.332031 99.460938 18.574219 C 112.707031 13.222656 121.820312 15.96875 151.960938 25.152344 C 158.734375 27.210938 166.414062 29.519531 175.480469 32.171875 C 209.835938 42.246094 236.730469 48.859375 258.355469 54.195312 C 308.484375 66.527344 329.242188 71.628906 343.277344 95.476562 C 347.308594 102.355469 359.828125 126.53125 351.488281 149.628906 C 348.167969 158.898438 341.6875 167.101562 332.296875 174.007812 C 324.316406 179.875 313.945312 184.992188 301.476562 189.191406 C 278.773438 196.804688 253.664062 200.082031 235.292969 202.457031 C 182.070312 209.390625 144.929688 204.042969 115.050781 199.734375 C 109.414062 198.921875 104.121094 198.15625 99.09375 197.527344 C 114.121094 209.867188 127.335938 223.027344 131.15625 246.832031 C 132.082031 252.507812 135.753906 281.992188 117.457031 303.789062 C 104.417969 319.332031 81.578125 328.964844 57.894531 328.976562 C 48.980469 328.96875 40.699219 327.554688 33.453125 324.925781 Z M 96.996094 197.285156 C 73.714844 194.535156 56.300781 195.144531 39.097656 208.65625 C 21.136719 222.730469 7.875 247.546875 5.304688 271.863281 C 3.636719 287.867188 6.972656 301.820312 14.738281 311.128906 C 23.632812 321.722656 39.367188 327.828125 57.914062 327.828125 C 81.265625 327.855469 103.769531 318.378906 116.601562 303.082031 C 134.566406 281.644531 130.96875 252.621094 130.0625 246.996094 C 126.191406 222.890625 112.429688 209.8125 96.996094 197.285156 Z M 175.324219 32.714844 L 175.132812 33.242188 C 166.066406 30.589844 158.351562 28.269531 151.578125 26.207031 C 121.753906 17.140625 112.722656 14.382812 99.851562 19.589844 C 82.070312 26.800781 65.898438 45.703125 56.601562 70.125 C 47.074219 95.183594 45.863281 122.105469 53.285156 143.992188 C 61.160156 167.160156 77.144531 179.925781 92.59375 192.300781 L 97.460938 196.21875 C 103.078125 196.863281 108.972656 197.726562 115.210938 198.636719 C 145.019531 202.917969 182.089844 208.242188 235.132812 201.363281 C 253.46875 198.976562 278.53125 195.722656 301.113281 188.105469 C 327.769531 179.136719 344.367188 166.082031 350.433594 149.246094 C 358.609375 126.605469 346.300781 102.824219 342.300781 96.078125 C 328.515625 72.640625 307.914062 67.554688 258.125 55.265625 C 236.453125 49.953125 209.523438 43.328125 175.167969 33.253906 Z M 175.324219 32.714844 " fill-opacity="1" fill-rule="nonzero"/></g></g></g></g><g clip-path="url(#7875e2698c)"><g clip-path="url(#466674edee)"><g clip-path="url(#9405b040fd)"><g clip-path="url(#0f33936f4c)"><path fill="#231f20" d="M 40.480469 324.648438 C 30.351562 320.972656 22.125 315.121094 16.925781 307.621094 C 6.597656 292.761719 6.734375 268.796875 17.257812 245.058594 C 24.089844 229.734375 34.382812 217.820312 47.878906 209.574219 C 55.339844 205.03125 61.300781 202.417969 67.195312 201.089844 C 77.9375 198.695312 88.644531 198.796875 100.449219 200.050781 C 86.125 187.644531 70.664062 172.996094 60.664062 147.902344 C 50.9375 123.585938 51.421875 94.929688 61.988281 69.214844 C 71.125 46.882812 85.765625 29.890625 102.128906 22.527344 C 117.402344 15.640625 129.492188 19.390625 165.382812 30.5 L 179.707031 34.898438 L 204.148438 42.453125 C 219.503906 47.1875 232.78125 51.289062 244.953125 54.828125 C 250.34375 56.425781 255.414062 57.90625 260.328125 59.289062 C 311.539062 74.125 334.925781 80.859375 346.722656 106.484375 L 347.105469 107.300781 C 348.730469 110.71875 352.046875 117.8125 354.054688 126.867188 C 356.539062 138.121094 356.03125 148.410156 352.582031 157.472656 C 346.4375 173.644531 330.5625 186.363281 305.457031 195.335938 C 285.023438 202.617188 262.65625 206.128906 243.359375 208.847656 C 207.351562 213.863281 178.484375 211.714844 155 208.96875 C 143.710938 207.621094 133.46875 206.015625 124.4375 204.574219 C 117.128906 203.433594 110.367188 202.335938 103.957031 201.5625 L 105.011719 202.503906 C 120.21875 215.546875 133.355469 226.84375 137.921875 246.9375 C 138.566406 249.882812 139.1875 252.773438 139.050781 255.789062 L 139.003906 256.570312 C 138.84375 264.160156 137.804688 271.628906 135.890625 278.976562 C 132.566406 291.429688 126.8125 301.808594 118.707031 309.78125 C 104.753906 323.554688 81.859375 330.820312 58.992188 328.695312 C 52.648438 328.136719 46.476562 326.789062 40.480469 324.648438 Z M 101.929688 201.34375 C 89.621094 199.945312 78.523438 199.703125 67.441406 202.171875 C 61.675781 203.46875 55.808594 206.039062 48.445312 210.535156 C 35.152344 218.65625 25.007812 230.386719 18.285156 245.511719 C 7.890625 268.898438 7.707031 292.449219 17.832031 306.992188 C 25.753906 318.390625 40.789062 325.875 59.113281 327.585938 C 81.644531 329.667969 104.167969 322.542969 117.921875 308.976562 C 130.320312 296.75 137.050781 279.078125 137.90625 256.53125 L 137.914062 255.738281 C 138.039062 252.875 137.507812 250.171875 136.839844 247.183594 C 132.34375 227.433594 119.359375 216.269531 104.300781 203.359375 Z M 302.855469 73.605469 C 291.351562 69.429688 277.257812 65.390625 260.015625 60.371094 C 255.101562 58.988281 250.027344 57.507812 244.605469 55.894531 C 232.46875 52.371094 219.191406 48.269531 203.800781 43.523438 L 179.394531 35.980469 L 165.035156 31.570312 C 129.472656 20.539062 117.488281 16.828125 102.585938 23.570312 C 86.511719 30.800781 72.0625 47.582031 63.027344 69.632812 C 52.566406 95.066406 52.101562 123.453125 61.691406 147.480469 C 71.914062 173.054688 87.847656 187.714844 102.40625 200.242188 C 109.359375 201.054688 116.6875 202.238281 124.597656 203.476562 C 133.625 204.917969 143.871094 206.523438 155.125 207.859375 C 178.558594 210.625 207.324219 212.738281 243.199219 207.753906 C 273.734375 203.460938 337.28125 194.496094 351.527344 157.089844 C 356.78125 143.265625 354.960938 126.675781 346.097656 107.769531 L 345.71875 106.957031 C 338.050781 90.355469 325.328125 81.757812 302.855469 73.605469 Z M 302.855469 73.605469 " fill-opacity="1" fill-rule="nonzero"/></g></g></g></g><g clip-path="url(#5fe942e746)"><g clip-path="url(#2a7c5f9ff1)"><g clip-path="url(#aace72d1b4)"><g clip-path="url(#5aa051c261)"><path fill="#231f20" d="M 47.980469 325.257812 C 35.316406 320.664062 25.386719 313.039062 19.925781 303.414062 C 11.160156 287.96875 12.929688 264.554688 24.527344 242.238281 C 31.796875 228.230469 42.238281 218.4375 57.371094 211.382812 C 63.125 208.691406 69.644531 205.640625 76.796875 204.574219 C 86.996094 203.015625 96.613281 203.160156 106.660156 204.214844 C 94.011719 191.902344 80.132812 176.074219 69.078125 151.472656 C 66.28125 145.328125 64.105469 138.964844 62.554688 132.390625 C 61 125.816406 60.101562 119.15625 59.851562 112.402344 C 59.605469 105.824219 60.027344 99.289062 61.109375 92.796875 C 62.191406 86.300781 63.914062 79.980469 66.28125 73.835938 C 70.382812 63.296875 82.285156 37.507812 104.828125 26.492188 C 122.230469 17.910156 137.710938 22.851562 179.035156 36.089844 L 183.953125 37.675781 C 199.714844 42.71875 214.492188 47.839844 227.5 52.359375 C 235.378906 55.097656 242.792969 57.707031 249.75 60.03125 L 261.929688 64.09375 C 314.222656 81.433594 340.46875 90.15625 350.1875 117.457031 L 350.835938 119.285156 C 353.65625 126.761719 361.1875 146.699219 353.675781 165.320312 C 347.535156 180.492188 332.65625 192.65625 309.402344 201.464844 C 290.425781 208.679688 269.421875 212.488281 251.394531 215.226562 C 220.367188 219.902344 193.921875 218.191406 163.777344 214.183594 C 152.417969 212.691406 142.308594 210.9375 133.390625 209.414062 C 124.46875 207.890625 117.246094 206.625 109.8125 205.71875 C 112.296875 208.09375 114.746094 210.335938 117.066406 212.492188 C 131.785156 226.113281 143.433594 236.910156 146.535156 255.558594 C 147.027344 258.484375 147.40625 261.609375 146.886719 264.6875 C 143.210938 286.890625 133.902344 304.539062 119.96875 315.734375 C 104.960938 327.8125 81.964844 332.730469 59.894531 328.507812 C 55.835938 327.742188 51.863281 326.660156 47.980469 325.257812 Z M 107.984375 205.492188 C 97.472656 204.308594 87.523438 204.082031 76.992188 205.679688 C 69.972656 206.714844 63.535156 209.757812 57.84375 212.390625 C 42.945312 219.332031 32.679688 228.988281 25.53125 242.761719 C 14.097656 264.738281 12.316406 287.75 20.921875 302.859375 C 27.84375 315.046875 42.121094 323.96875 60.136719 327.398438 C 81.878906 331.542969 104.515625 326.734375 119.28125 314.886719 C 132.996094 303.851562 142.144531 286.421875 145.804688 264.492188 C 146.292969 261.605469 145.910156 258.597656 145.429688 255.757812 C 142.398438 237.453125 130.855469 226.8125 116.289062 213.324219 C 113.644531 210.851562 110.847656 208.246094 107.984375 205.492188 Z M 293.324219 75.960938 C 284.039062 72.589844 273.488281 69.082031 261.542969 65.148438 L 249.367188 61.089844 C 242.410156 58.761719 234.996094 56.15625 227.152344 53.425781 C 214.109375 48.894531 199.378906 43.75 183.605469 38.742188 L 178.6875 37.160156 C 137.679688 24.035156 122.316406 19.097656 105.296875 27.5 C 83.136719 38.335938 71.386719 63.820312 67.320312 74.253906 C 57.878906 98.746094 58.851562 126.019531 70.085938 151.003906 C 81.320312 175.988281 95.640625 192.015625 108.488281 204.441406 C 116.371094 205.308594 124.570312 206.730469 133.597656 208.292969 C 142.621094 209.855469 152.578125 211.59375 163.933594 213.085938 C 193.976562 217.054688 220.335938 218.773438 251.246094 214.097656 C 291.6875 207.941406 339.753906 196.785156 352.636719 164.902344 C 359.972656 146.652344 352.59375 127.054688 349.785156 119.660156 L 349.121094 117.867188 C 341.773438 97.203125 324.625 87.316406 293.324219 75.960938 Z M 293.324219 75.960938 " fill-opacity="1" fill-rule="nonzero"/></g></g></g></g><g clip-path="url(#ed6907e707)"><g clip-path="url(#bb40f9f729)"><g clip-path="url(#2200a769c2)"><g clip-path="url(#8e086823f1)"><path fill="#231f20" d="M 55.890625 326.816406 C 40.3125 321.164062 28.417969 311.273438 22.972656 299.183594 C 15.691406 283.160156 19.066406 260.25 31.75 239.445312 C 39.359375 227.03125 50.164062 218.964844 66.863281 213.195312 L 68.777344 212.535156 C 74.34375 210.570312 80.113281 208.601562 86.449219 208.035156 C 95.628906 207.265625 104.792969 207.417969 113.941406 208.492188 C 102.269531 195.691406 89.503906 179.3125 77.507812 155.007812 C 64.441406 128.605469 62.050781 102.171875 70.605469 78.472656 C 75.347656 65.300781 86.488281 41.503906 107.492188 30.445312 C 126.410156 20.425781 144.800781 25.902344 188.175781 40.402344 C 205.894531 46.3125 222.386719 52.734375 236.960938 58.421875 C 243.136719 60.820312 248.992188 63.105469 254.558594 65.203125 L 263.457031 68.550781 C 316.628906 88.515625 345.914062 99.5 353.601562 128.453125 L 354.328125 130.945312 C 356.757812 139.277344 361.835938 156.648438 354.757812 173.199219 C 348.667969 187.355469 334.75 198.953125 313.367188 207.644531 C 294.644531 215.265625 273.625 219.230469 259.476562 221.585938 C 230.957031 226.25 205.988281 224.320312 172.539062 219.433594 C 160.972656 217.746094 150.914062 215.851562 142.011719 214.171875 C 133.105469 212.496094 124.859375 210.976562 116.828125 209.976562 C 120.960938 214.382812 124.925781 218.371094 128.660156 222.113281 C 142.957031 236.460938 153.3125 246.867188 155.171875 264.226562 C 155.570312 267.957031 155.445312 270.9375 154.757812 273.597656 C 153.386719 278.914062 145.253906 306.269531 121.21875 321.722656 C 113.007812 327.027344 102.882812 330.363281 91.917969 331.402344 C 81.277344 332.410156 70.832031 331.394531 60.585938 328.359375 C 58.964844 327.890625 57.40625 327.363281 55.890625 326.816406 Z M 115.082031 209.742188 C 105.582031 208.5625 96.066406 208.359375 86.523438 209.136719 C 80.355469 209.6875 74.898438 211.570312 69.148438 213.585938 L 67.226562 214.28125 C 50.777344 219.902344 40.164062 227.882812 32.730469 240.039062 C 20.210938 260.503906 16.855469 283.023438 23.980469 298.710938 C 29.863281 311.675781 43.316406 322.09375 60.898438 327.277344 C 81.898438 333.460938 104.773438 330.96875 120.605469 320.78125 C 144.277344 305.554688 152.285156 278.554688 153.679688 273.285156 C 154.3125 270.765625 154.457031 267.953125 154.058594 264.339844 C 152.222656 247.347656 142.007812 237.109375 127.859375 222.898438 C 123.835938 218.851562 119.546875 214.546875 115.082031 209.742188 Z M 204.542969 47.296875 C 199.089844 45.316406 193.507812 43.371094 187.828125 41.472656 C 144.734375 27.074219 126.535156 21.625 108 31.464844 C 87.339844 42.332031 76.351562 65.824219 71.664062 78.855469 C 63.21875 102.238281 65.59375 128.386719 78.476562 154.527344 C 90.746094 179.289062 103.78125 195.804688 115.628906 208.664062 C 124.136719 209.679688 132.699219 211.3125 142.203125 213.089844 C 151.074219 214.753906 161.144531 216.613281 172.710938 218.300781 C 206.042969 223.1875 230.894531 225.113281 259.28125 220.476562 C 273.378906 218.144531 294.328125 214.15625 312.957031 206.578125 C 334.015625 198.011719 347.742188 186.621094 353.730469 172.746094 C 360.667969 156.582031 355.652344 139.472656 353.21875 131.261719 L 352.503906 128.730469 C 344.96875 100.351562 315.890625 89.445312 263.070312 69.605469 L 254.140625 66.246094 C 248.574219 64.148438 242.753906 61.875 236.578125 59.476562 C 226.714844 55.617188 215.9375 51.429688 204.542969 47.296875 Z M 204.542969 47.296875 " fill-opacity="1" fill-rule="nonzero"/></g></g></g></g><g clip-path="url(#c04a6b0a35)"><g clip-path="url(#e7d4c218e9)"><g clip-path="url(#518802c171)"><g clip-path="url(#af6ff1f86f)"><path fill="#231f20" d="M 63.980469 329.3125 L 60.980469 328.144531 C 43.605469 321.082031 30.882812 308.980469 25.972656 294.972656 C 23.050781 286.464844 22.832031 276.3125 25.433594 265.628906 C 27.878906 255.601562 32.546875 245.585938 39.019531 236.625 C 44.785156 228.640625 53.320312 220.46875 76.34375 215.042969 L 79.273438 214.3125 C 84.550781 213.039062 90.019531 211.679688 96.050781 211.515625 C 104.75 211.289062 113.417969 211.714844 122.054688 212.789062 C 111.089844 199.570312 98.675781 182.441406 85.886719 158.566406 C 70.910156 130.515625 67.292969 105.824219 74.886719 83.132812 C 80.347656 66.875 90.910156 45.21875 110.15625 34.398438 C 119.902344 28.933594 130.160156 27.320312 143.496094 29.171875 C 156.03125 30.929688 170.929688 35.617188 192.402344 43.128906 C 211.292969 49.746094 228.988281 57.359375 244.625 64.066406 C 249.785156 66.296875 254.628906 68.414062 259.371094 70.371094 L 265.269531 72.871094 C 318.933594 95.328125 351.300781 108.902344 357.027344 139.414062 C 357.171875 140.222656 357.371094 141.089844 357.59375 142.128906 C 359.347656 150.570312 362.648438 166.261719 355.820312 181.027344 C 345.496094 203.449219 315.757812 219.261719 267.511719 227.964844 C 238.839844 233.054688 212.617188 229.632812 181.3125 224.648438 C 169.382812 222.75 159.257812 220.710938 150.359375 218.914062 C 141.457031 217.121094 133.074219 215.433594 124.738281 214.277344 C 130.132812 220.695312 135.148438 226.179688 139.621094 231.066406 C 153.738281 246.464844 163.019531 256.640625 163.808594 272.898438 C 164 276.160156 163.601562 279.34375 162.609375 282.457031 C 157.664062 297.070312 142.980469 317.472656 122.46875 327.710938 C 113.628906 332.113281 103.082031 334.417969 92.042969 334.355469 C 82.398438 334.289062 73.042969 332.605469 63.980469 329.3125 Z M 123.109375 214.046875 C 114.136719 212.859375 105.128906 212.390625 96.078125 212.644531 C 90.167969 212.808594 84.761719 214.113281 79.519531 215.394531 L 76.585938 216.125 C 53.945312 221.492188 45.601562 229.457031 39.9375 237.277344 C 26.484375 255.933594 21.425781 278.429688 27.058594 294.609375 C 31.8125 308.28125 44.339844 320.15625 61.398438 327.101562 C 81.679688 335.375 104.875 335.1875 121.964844 326.691406 C 142.210938 316.632812 156.671875 296.511719 161.539062 282.109375 C 162.492188 279.121094 162.875 276.058594 162.683594 272.925781 C 161.941406 257.085938 152.726562 247.054688 138.832031 231.816406 C 134.09375 226.671875 128.824219 220.898438 123.109375 214.046875 Z M 197.234375 46.039062 L 192.066406 44.164062 C 150.421875 29.613281 130.140625 24.40625 110.722656 35.363281 C 91.777344 46.011719 81.363281 67.363281 75.96875 83.445312 C 68.488281 105.820312 72.054688 130.210938 86.898438 157.976562 C 99.910156 182.332031 112.578125 199.632812 123.671875 212.9375 C 132.472656 214.136719 141.007812 215.839844 150.601562 217.808594 C 159.5 219.601562 169.589844 221.628906 181.484375 223.515625 C 212.71875 228.476562 238.820312 231.890625 267.328125 226.820312 C 315.195312 218.183594 344.640625 202.621094 354.8125 180.503906 C 361.46875 166.113281 358.242188 150.648438 356.488281 142.324219 L 355.957031 139.621094 C 350.296875 109.691406 318.128906 96.230469 264.851562 73.914062 L 258.917969 71.402344 L 244.171875 65.097656 C 230.023438 59.007812 214.117188 52.164062 197.234375 46.039062 Z M 197.234375 46.039062 " fill-opacity="1" fill-rule="nonzero"/></g></g></g></g><g clip-path="url(#2c015f7626)"><g clip-path="url(#921dde3c33)"><g clip-path="url(#e2da2abca8)"><g clip-path="url(#2f79c19dd0)"><path fill="#231f20" d="M 71.886719 332.539062 C 68.183594 331.203125 64.59375 329.609375 61.121094 327.757812 C 44.417969 318.949219 32.726562 305.429688 29.019531 290.742188 C 24.664062 273.351562 31.421875 250.992188 46.292969 233.808594 C 53.066406 225.992188 62.375 220.089844 85.835938 216.851562 L 88.984375 216.402344 C 94.234375 215.636719 99.632812 214.808594 105.652344 215 C 114.035156 215.210938 122.375 215.914062 130.675781 217.109375 C 120.101562 203.359375 107.878906 185.820312 94.316406 162.101562 C 86.171875 147.800781 81.101562 135.882812 78.441406 124.566406 C 75.378906 111.507812 75.648438 99.457031 79.214844 87.769531 C 80.339844 84.117188 83.296875 74.433594 88.8125 64.488281 C 95.304688 52.746094 103.382812 43.96875 112.859375 38.367188 C 123.007812 32.332031 134.210938 30.304688 148.203125 31.996094 C 160.261719 33.421875 174.710938 37.589844 196.660156 45.871094 C 217.414062 53.71875 237.007812 62.898438 254.335938 70.976562 L 264.167969 75.578125 L 267.582031 77.136719 C 295.085938 89.859375 316.800781 99.890625 332.765625 111.058594 C 350.105469 123.164062 358.636719 135.296875 360.441406 150.410156 L 360.71875 152.382812 C 361.816406 160.984375 363.636719 175.382812 356.914062 188.875 C 342.75 217.269531 299.851562 229.542969 275.578125 234.355469 C 249.59375 239.386719 224.84375 235.863281 190.074219 229.898438 C 177.632812 227.773438 167.417969 225.542969 158.414062 223.589844 C 149.410156 221.636719 141.632812 219.929688 133.261719 218.644531 C 139.375 226.480469 144.871094 233.050781 149.738281 238.839844 C 164.046875 255.898438 172.664062 266.152344 172.421875 281.519531 C 172.375 284.90625 171.71875 288.171875 170.457031 291.320312 C 164.433594 306.058594 146.453125 325.339844 123.734375 333.664062 C 114.183594 337.171875 103.191406 338.398438 92 337.207031 C 85.105469 336.46875 78.402344 334.910156 71.886719 332.539062 Z M 131.648438 218.378906 C 123.015625 217.109375 114.335938 216.347656 105.609375 216.101562 C 99.695312 215.945312 94.347656 216.753906 89.179688 217.507812 L 85.984375 217.980469 C 62.890625 221.191406 53.765625 226.921875 47.136719 234.550781 C 32.519531 251.472656 25.832031 273.417969 30.117188 290.464844 C 33.722656 304.875 45.246094 318.09375 61.632812 326.789062 C 81.535156 337.3125 104.59375 339.464844 123.324219 332.601562 C 145.769531 324.375 163.515625 305.40625 169.414062 290.902344 C 170.617188 287.886719 171.246094 284.757812 171.308594 281.511719 C 171.550781 266.585938 163.496094 256.972656 148.878906 239.5625 C 143.828125 233.511719 138.046875 226.632812 131.648438 218.378906 Z M 188.796875 44.171875 C 155.105469 31.949219 132.558594 27.949219 113.425781 39.328125 C 98.683594 48.039062 87.511719 64.457031 80.296875 88.082031 C 73.792969 109.296875 78.421875 131.964844 95.324219 161.515625 C 109.148438 185.722656 121.582031 203.457031 132.28125 217.292969 C 141.097656 218.660156 149.371094 220.429688 158.667969 222.445312 C 167.964844 224.464844 177.851562 226.617188 190.292969 228.742188 C 224.910156 234.691406 249.578125 238.222656 275.359375 233.199219 C 299.453125 228.441406 341.949219 216.300781 355.910156 188.351562 C 362.484375 175.164062 360.703125 160.976562 359.605469 152.496094 L 359.371094 150.5 C 357.597656 135.757812 349.1875 123.824219 332.128906 111.941406 C 316.253906 100.847656 294.574219 90.832031 267.144531 78.132812 L 263.707031 76.527344 L 253.859375 71.957031 C 236.566406 63.894531 216.972656 54.714844 196.289062 46.890625 Z M 188.796875 44.171875 " fill-opacity="1" fill-rule="nonzero"/></g></g></g></g><g clip-path="url(#3fd4b5d0fe)"><g clip-path="url(#26799b41bb)"><g clip-path="url(#ac0fdc8ee1)"><g clip-path="url(#dabc1ee5ab)"><path fill="#231f20" d="M 79.582031 336.445312 C 73.027344 334.082031 66.839844 330.988281 61.019531 327.164062 C 53.285156 322.046875 46.875 316.015625 41.894531 309.230469 C 36.914062 302.445312 33.371094 294.433594 32.066406 286.511719 C 30.582031 277.332031 31.894531 267.132812 35.914062 257.042969 C 37.882812 252.121094 40.351562 247.46875 43.324219 243.082031 C 46.300781 238.695312 49.707031 234.675781 53.550781 231.023438 C 60.6875 224.296875 70.132812 219.875 95.28125 218.683594 L 98.160156 218.535156 C 103.269531 218.277344 109.027344 217.976562 115.253906 218.484375 C 124.65625 219.226562 132.523438 220.25 139.722656 221.46875 C 129.328125 207.222656 117.054688 189.269531 102.742188 165.640625 C 86.074219 138.085938 77.039062 116.25 83.542969 92.40625 L 83.714844 91.710938 C 84.765625 87.832031 87.191406 78.835938 92.074219 69.21875 C 98.167969 57.25 106.0625 48.207031 115.523438 42.320312 C 137.363281 28.738281 164.394531 34.644531 200.882812 48.597656 C 221.917969 56.664062 241.992188 66.933594 259.683594 75.980469 L 268.980469 80.75 L 270.570312 81.523438 C 297.148438 95.03125 320.148438 106.679688 336.5 118.984375 C 354.253906 132.355469 362.976562 145.832031 363.867188 161.367188 C 364.359375 169.113281 365.207031 183.558594 357.996094 196.753906 C 351.835938 208.019531 340.78125 217.867188 325.203125 226.035156 C 309.625 234.203125 294.195312 238.441406 283.625 240.699219 C 259.710938 245.84375 236.976562 242.132812 198.847656 235.113281 C 185.703125 232.734375 175.363281 230.296875 166.222656 228.175781 C 158.140625 226.316406 150.589844 224.535156 142.285156 223.074219 C 148.304688 231.269531 153.660156 238.230469 158.398438 244.371094 C 174.316406 265 182.300781 275.34375 181.058594 290.1875 C 180.730469 293.679688 179.816406 297.011719 178.308594 300.179688 C 170.183594 317.421875 147.726562 334.007812 124.949219 339.640625 C 114.679688 342.167969 103.21875 342.273438 91.8125 339.925781 C 87.652344 339.054688 83.574219 337.894531 79.582031 336.445312 Z M 140.679688 222.769531 C 133.1875 221.484375 124.992188 220.382812 115.164062 219.605469 C 109.023438 219.089844 103.535156 219.410156 98.222656 219.675781 L 95.34375 219.824219 C 70.527344 220.976562 61.253906 225.257812 54.335938 231.828125 C 38.757812 246.566406 30.261719 268.453125 33.160156 286.351562 C 35.605469 301.335938 46.015625 315.863281 61.636719 326.230469 C 80.878906 338.90625 104.441406 343.511719 124.667969 338.546875 C 147.175781 333.011719 169.300781 316.664062 177.277344 299.726562 C 178.757812 296.679688 179.640625 293.472656 179.9375 290.097656 C 181.144531 275.683594 173.730469 266.0625 157.515625 245.046875 C 152.59375 238.640625 146.988281 231.390625 140.679688 222.769531 Z M 192.824219 46.789062 C 160.503906 35.0625 136.03125 30.882812 116.125 43.296875 C 101.601562 52.28125 91.070312 68.695312 84.808594 91.988281 L 84.621094 92.71875 C 78.226562 116.164062 87.183594 137.773438 103.707031 165.070312 C 118.324219 189.171875 130.792969 207.355469 141.335938 221.734375 C 150.125 223.289062 157.984375 225.105469 166.5 227.082031 C 175.59375 229.222656 185.945312 231.625 199.042969 234.027344 C 237.03125 241 259.695312 244.679688 283.382812 239.617188 C 296.679688 236.753906 341.183594 225.101562 357.003906 196.195312 C 364.066406 183.304688 363.210938 169.097656 362.761719 161.445312 C 361.863281 146.265625 353.289062 133.039062 335.8125 119.890625 C 319.566406 107.625 296.605469 95.988281 270.042969 82.527344 L 268.457031 81.753906 L 259.160156 76.988281 C 241.503906 67.953125 221.464844 57.695312 200.5 49.652344 Z M 192.824219 46.789062 " fill-opacity="1" fill-rule="nonzero"/></g></g></g></g><g clip-path="url(#4a7bddcc11)"><g clip-path="url(#9b5f3792c9)"><g clip-path="url(#5fff35d541)"><g clip-path="url(#19cc939ae6)"><path fill="#231f20" d="M 87.035156 341.019531 C 77.472656 337.542969 68.726562 332.617188 60.796875 326.246094 C 45.542969 313.980469 36.40625 298.359375 35.101562 282.316406 C 33.515625 262.664062 43.867188 240.933594 60.820312 228.207031 C 66.894531 223.640625 75.273438 219.3125 104.757812 220.53125 L 106.011719 220.585938 C 111.582031 220.816406 117.894531 221.074219 124.855469 221.96875 C 134.328125 223.171875 142.09375 224.476562 149.050781 225.808594 C 138.683594 211.054688 126.125 192.679688 111.171875 169.175781 C 94.046875 142.332031 82.359375 121.445312 87.820312 97.066406 C 87.90625 96.8125 87.960938 96.554688 87.984375 96.289062 C 92.890625 73.21875 103.339844 55.941406 118.222656 46.285156 C 129 39.285156 141.832031 36.613281 157.417969 38.085938 C 170.605469 39.363281 185.75 43.585938 205.132812 51.371094 C 227.582031 60.355469 249.1875 72.332031 268.285156 82.886719 L 273.789062 85.917969 L 274.222656 86.15625 C 300.820312 100.820312 323.800781 113.5 340.441406 126.984375 C 358.667969 141.800781 367.210938 156.210938 367.292969 172.328125 C 367.355469 184.65625 364.609375 195.527344 359.039062 204.621094 C 352.742188 214.957031 342.683594 224.253906 329.113281 232.152344 C 317.363281 238.941406 304.890625 243.921875 291.695312 247.089844 C 270.265625 252.179688 249.285156 248.472656 207.609375 240.363281 C 193.632812 237.640625 183.554688 235.140625 173.785156 232.671875 C 166.34375 230.804688 159.441406 229.097656 151.589844 227.484375 C 156.164062 233.964844 160.285156 239.71875 164.015625 244.898438 C 184.390625 273.316406 192.027344 283.972656 189.660156 298.84375 C 189.0625 302.4375 187.898438 305.839844 186.15625 309.042969 C 175.53125 329.121094 147.949219 342.609375 126.175781 345.582031 C 113.40625 347.320312 99.839844 345.664062 87.035156 341.019531 Z M 150 227.148438 C 142.757812 225.714844 134.699219 224.34375 124.730469 223.078125 C 117.769531 222.183594 111.492188 221.9375 105.957031 221.722656 L 104.707031 221.667969 C 75.609375 220.46875 67.402344 224.660156 61.496094 229.089844 C 44.820312 241.597656 34.679688 262.96875 36.21875 282.203125 C 37.503906 297.960938 46.472656 313.28125 61.503906 325.386719 C 80.082031 340.332031 104.207031 347.449219 126.027344 344.453125 C 147.851562 341.460938 174.6875 328.257812 185.152344 308.519531 C 186.828125 305.414062 187.96875 302.125 188.574219 298.648438 C 190.863281 284.226562 183.292969 273.714844 163.101562 245.558594 C 159.183594 240.117188 154.824219 234.035156 150 227.148438 Z M 194.0625 48.3125 C 168.210938 38.933594 140.394531 33.222656 118.835938 47.226562 C 104.230469 56.660156 93.945312 73.71875 89.105469 96.492188 C 89.035156 96.789062 88.96875 97.082031 88.941406 97.269531 C 83.582031 121.253906 95.144531 141.933594 112.113281 168.558594 C 127.40625 192.546875 140.183594 211.199219 150.652344 226.109375 C 159 227.785156 166.253906 229.621094 174.074219 231.539062 C 183.8125 233.996094 193.921875 236.511719 207.867188 239.21875 C 249.351562 247.300781 270.261719 250.984375 291.429688 245.960938 C 314.691406 240.421875 344.425781 226.476562 358.109375 204.003906 C 363.53125 195.097656 366.25 184.414062 366.179688 172.324219 C 366.125 156.574219 357.691406 142.402344 339.730469 127.84375 C 323.199219 114.398438 300.238281 101.765625 273.675781 87.113281 L 273.242188 86.875 L 267.738281 83.84375 C 248.675781 73.304688 227.09375 61.371094 204.714844 52.414062 C 201.210938 50.984375 197.648438 49.613281 194.0625 48.3125 Z M 194.0625 48.3125 " fill-opacity="1" fill-rule="nonzero"/></g></g></g></g><g clip-path="url(#1e13f15bff)"><g clip-path="url(#a729c67ca8)"><g clip-path="url(#89d181a9a9)"><g clip-path="url(#6f46d87050)"><path fill="#231f20" d="M 94.382812 346.117188 C 88.066406 343.820312 82.054688 340.898438 76.347656 337.351562 C 70.644531 333.804688 65.363281 329.710938 60.507812 325.066406 C 46.207031 311.273438 38.246094 294.605469 38.148438 278.085938 C 38.054688 257.0625 50.367188 235.40625 68.128906 225.402344 C 75.972656 221 87.527344 217.347656 134.457031 225.449219 C 144.046875 227.097656 151.792969 228.675781 158.59375 230.226562 C 148.117188 214.996094 135.265625 196.234375 119.550781 172.734375 C 102.75 147.519531 89.476562 127.613281 92.125 101.769531 C 92.28125 100.355469 95.929688 67.03125 120.886719 50.242188 C 130.769531 43.628906 142.832031 40.4375 156.789062 40.804688 C 169.007812 41.132812 182.515625 44.042969 198.109375 49.660156 C 226.386719 59.921875 255.332031 77.230469 278.601562 91.089844 C 303.921875 106.207031 327.792969 120.484375 344.546875 135.085938 C 363.136719 151.308594 371.46875 166.636719 370.71875 183.289062 C 369.875 202.734375 357.109375 218.175781 346.59375 227.742188 C 333.375 239.710938 316.320312 249.09375 299.761719 253.484375 C 279.953125 258.722656 258.703125 254.320312 216.386719 245.578125 C 201.421875 242.496094 191.082031 239.742188 181.101562 237.078125 C 174.683594 235.347656 168.410156 233.667969 161.152344 231.949219 L 161.277344 232.15625 C 177.828125 256.199219 187.8125 270.691406 193.464844 281.546875 C 199.121094 292.398438 200.300781 299.238281 198.257812 307.496094 C 194.421875 323.230469 181.175781 333.519531 170.75 339.332031 C 157.773438 346.574219 141.984375 351.039062 127.4375 351.535156 C 116.070312 351.855469 105.050781 350.046875 94.382812 346.117188 Z M 159.539062 231.5625 C 152.445312 229.945312 144.371094 228.289062 134.296875 226.546875 C 87.695312 218.523438 76.347656 222.050781 68.695312 226.363281 C 51.285156 236.175781 39.191406 257.4375 39.261719 278.089844 C 39.355469 294.292969 47.183594 310.671875 61.285156 324.234375 C 66.082031 328.832031 71.296875 332.886719 76.9375 336.394531 C 82.578125 339.902344 88.519531 342.792969 94.765625 345.058594 C 105.386719 348.914062 116.519531 350.800781 127.410156 350.410156 C 141.753906 349.921875 157.367188 345.507812 170.195312 338.335938 C 180.433594 332.609375 193.421875 322.589844 197.199219 307.234375 C 200.980469 291.878906 193.175781 280.484375 160.371094 232.78125 Z M 121.195312 50.710938 L 121.503906 51.179688 C 97.015625 67.664062 93.390625 100.476562 93.246094 101.859375 C 90.78125 126.09375 101.992188 144.339844 120.492188 172.117188 C 136.535156 196.136719 149.605469 215.175781 160.21875 230.574219 C 167.992188 232.402344 174.597656 234.160156 181.414062 235.996094 C 191.359375 238.648438 201.652344 241.425781 216.613281 244.503906 C 258.757812 253.183594 279.9375 257.558594 299.484375 252.386719 C 315.863281 248.054688 332.761719 238.773438 345.820312 226.902344 C 356.203125 217.488281 368.761719 202.292969 369.621094 183.25 C 370.3125 166.972656 362.117188 151.933594 343.804688 135.929688 C 327.144531 121.402344 303.304688 107.140625 278.042969 92.082031 C 254.820312 78.199219 225.898438 60.9375 197.726562 50.71875 C 164.691406 38.773438 139.769531 38.890625 121.503906 51.179688 Z M 121.195312 50.710938 " fill-opacity="1" fill-rule="nonzero"/></g></g></g></g></svg>