<svg xmlns="http://www.w3.org/2000/svg" xmlns:xlink="http://www.w3.org/1999/xlink" width="500" zoomAndPan="magnify" viewBox="0 0 375 374.999991" height="500" preserveAspectRatio="xMidYMid meet" version="1.0"><path fill="#ff1616" d="M 230.195312 138.417969 C 230.644531 138.84375 231.070312 139.292969 231.472656 139.761719 C 231.875 140.230469 232.253906 140.722656 232.609375 141.230469 C 232.964844 141.738281 233.292969 142.261719 233.59375 142.800781 C 233.894531 143.34375 234.167969 143.898438 234.414062 144.464844 C 234.65625 145.035156 234.875 145.613281 235.0625 146.203125 C 235.25 146.792969 235.40625 147.390625 235.53125 147.996094 C 235.660156 148.601562 235.757812 149.214844 235.820312 149.828125 C 235.886719 150.445312 235.921875 151.0625 235.925781 151.683594 C 235.929688 152.300781 235.902344 152.917969 235.84375 153.535156 C 235.785156 154.152344 235.695312 154.761719 235.574219 155.371094 C 235.453125 155.976562 235.304688 156.578125 235.121094 157.171875 C 234.941406 157.761719 234.730469 158.34375 234.492188 158.914062 C 234.253906 159.484375 233.984375 160.042969 233.691406 160.589844 C 233.394531 161.132812 233.074219 161.660156 232.726562 162.171875 C 232.375 162.683594 232.003906 163.175781 231.605469 163.652344 C 231.207031 164.125 230.785156 164.578125 230.34375 165.007812 L 188.1875 204.53125 L 146.183594 165.15625 C 145.285156 164.289062 144.484375 163.339844 143.773438 162.3125 C 143.066406 161.28125 142.464844 160.195312 141.976562 159.046875 C 141.484375 157.898438 141.109375 156.714844 140.851562 155.492188 C 140.597656 154.269531 140.464844 153.035156 140.453125 151.785156 C 140.457031 150.539062 140.585938 149.300781 140.835938 148.078125 C 141.089844 146.851562 141.464844 145.667969 141.953125 144.519531 C 142.445312 143.367188 143.050781 142.28125 143.761719 141.253906 C 144.472656 140.226562 145.28125 139.28125 146.183594 138.417969 C 148.125 136.570312 150.339844 135.15625 152.828125 134.164062 C 155.316406 133.171875 157.898438 132.679688 160.574219 132.6875 C 161.902344 132.675781 163.21875 132.796875 164.523438 133.039062 C 165.832031 133.285156 167.097656 133.652344 168.332031 134.144531 C 169.566406 134.636719 170.742188 135.242188 171.859375 135.960938 C 172.976562 136.679688 174.011719 137.496094 174.96875 138.417969 L 180.550781 143.707031 C 181.058594 144.195312 181.609375 144.632812 182.203125 145.019531 C 182.792969 145.402344 183.417969 145.726562 184.070312 145.992188 C 184.726562 146.253906 185.398438 146.453125 186.089844 146.589844 C 186.785156 146.722656 187.484375 146.789062 188.1875 146.789062 C 188.894531 146.789062 189.59375 146.722656 190.285156 146.589844 C 190.980469 146.453125 191.652344 146.253906 192.308594 145.992188 C 192.960938 145.726562 193.585938 145.402344 194.175781 145.019531 C 194.769531 144.632812 195.320312 144.195312 195.828125 143.707031 L 201.40625 138.417969 C 201.886719 137.960938 202.390625 137.53125 202.910156 137.125 C 203.433594 136.714844 203.972656 136.335938 204.53125 135.980469 C 205.089844 135.621094 205.660156 135.292969 206.25 134.992188 C 206.839844 134.691406 207.441406 134.417969 208.054688 134.171875 C 208.671875 133.925781 209.296875 133.710938 209.929688 133.527344 C 210.566406 133.339844 211.207031 133.183594 211.859375 133.0625 C 212.507812 132.9375 213.164062 132.84375 213.820312 132.78125 C 214.480469 132.71875 215.140625 132.6875 215.800781 132.6875 C 216.464844 132.6875 217.125 132.71875 217.78125 132.78125 C 218.441406 132.84375 219.09375 132.9375 219.746094 133.0625 C 220.394531 133.183594 221.039062 133.339844 221.671875 133.527344 C 222.308594 133.710938 222.933594 133.925781 223.546875 134.171875 C 224.164062 134.417969 224.765625 134.691406 225.355469 134.992188 C 225.941406 135.292969 226.515625 135.621094 227.074219 135.980469 C 227.632812 136.335938 228.171875 136.714844 228.691406 137.125 C 229.214844 137.53125 229.714844 137.960938 230.195312 138.417969 Z M 230.195312 138.417969 " fill-opacity="1" fill-rule="nonzero"/><path fill="#ff1616" d="M 261.628906 27.347656 L 114.75 27.347656 C 113.425781 27.347656 112.105469 27.410156 110.789062 27.539062 C 109.472656 27.667969 108.167969 27.863281 106.867188 28.117188 C 105.570312 28.375 104.289062 28.695312 103.023438 29.082031 C 101.757812 29.464844 100.511719 29.910156 99.289062 30.414062 C 98.066406 30.921875 96.871094 31.484375 95.703125 32.109375 C 94.539062 32.734375 93.402344 33.414062 92.304688 34.148438 C 91.203125 34.882812 90.140625 35.667969 89.117188 36.507812 C 88.097656 37.347656 87.117188 38.238281 86.179688 39.171875 C 85.246094 40.109375 84.359375 41.085938 83.519531 42.109375 C 82.679688 43.132812 81.890625 44.195312 81.15625 45.296875 C 80.421875 46.398438 79.742188 47.53125 79.121094 48.699219 C 78.496094 49.867188 77.933594 51.0625 77.425781 52.285156 C 76.921875 53.507812 76.476562 54.75 76.09375 56.019531 C 75.707031 57.285156 75.386719 58.566406 75.128906 59.867188 C 74.875 61.164062 74.679688 62.472656 74.550781 63.789062 C 74.421875 65.105469 74.359375 66.425781 74.359375 67.75 L 74.359375 321.625 C 74.359375 322.183594 74.382812 322.742188 74.417969 323.300781 C 74.457031 323.859375 74.511719 324.414062 74.585938 324.96875 C 74.660156 325.523438 74.753906 326.078125 74.863281 326.625 C 74.976562 327.175781 75.101562 327.71875 75.25 328.257812 C 75.394531 328.800781 75.558594 329.335938 75.738281 329.863281 C 75.917969 330.394531 76.117188 330.917969 76.332031 331.433594 C 76.546875 331.949219 76.777344 332.460938 77.023438 332.960938 C 77.273438 333.464844 77.535156 333.957031 77.816406 334.441406 C 78.097656 334.925781 78.390625 335.398438 78.703125 335.867188 C 79.015625 336.332031 79.339844 336.785156 79.679688 337.230469 C 80.019531 337.671875 80.375 338.105469 80.742188 338.527344 C 81.113281 338.949219 81.496094 339.355469 81.890625 339.753906 C 82.285156 340.148438 82.691406 340.53125 83.113281 340.902344 C 83.535156 341.269531 83.964844 341.625 84.410156 341.96875 C 84.851562 342.308594 85.304688 342.636719 85.769531 342.945312 C 86.234375 343.257812 86.710938 343.554688 87.195312 343.835938 C 87.675781 344.117188 88.171875 344.382812 88.671875 344.628906 C 89.171875 344.878906 89.679688 345.109375 90.199219 345.328125 C 90.714844 345.542969 91.238281 345.742188 91.765625 345.921875 C 92.296875 346.105469 92.828125 346.269531 93.371094 346.414062 C 93.910156 346.5625 94.453125 346.691406 95.003906 346.800781 C 95.550781 346.914062 96.101562 347.003906 96.65625 347.082031 C 97.210938 347.15625 97.765625 347.214844 98.324219 347.253906 C 98.882812 347.292969 99.441406 347.3125 100 347.316406 C 100.5625 347.316406 101.121094 347.300781 101.679688 347.269531 C 102.238281 347.234375 102.792969 347.183594 103.347656 347.113281 C 103.902344 347.042969 104.457031 346.953125 105.003906 346.847656 C 105.554688 346.742188 106.101562 346.617188 106.640625 346.476562 C 107.183594 346.335938 107.71875 346.175781 108.25 346 C 108.78125 345.824219 109.304688 345.628906 109.824219 345.417969 C 110.339844 345.207031 110.851562 344.980469 111.355469 344.734375 C 111.859375 344.492188 112.355469 344.230469 112.839844 343.957031 L 186.425781 301.9375 C 186.957031 301.570312 187.542969 301.386719 188.1875 301.386719 C 188.832031 301.386719 189.421875 301.570312 189.953125 301.9375 L 263.535156 343.957031 C 267.503906 346.183594 271.765625 347.308594 276.316406 347.335938 C 278.585938 347.324219 280.816406 347.019531 283.007812 346.421875 C 285.199219 345.820312 287.277344 344.953125 289.242188 343.808594 C 290.207031 343.25 291.136719 342.625 292.023438 341.945312 C 292.910156 341.261719 293.746094 340.527344 294.539062 339.734375 C 295.328125 338.941406 296.0625 338.101562 296.742188 337.214844 C 297.421875 336.328125 298.042969 335.398438 298.601562 334.429688 C 299.160156 333.457031 299.652344 332.457031 300.078125 331.421875 C 300.503906 330.390625 300.863281 329.332031 301.152344 328.25 C 301.441406 327.171875 301.65625 326.074219 301.800781 324.964844 C 301.949219 323.855469 302.019531 322.742188 302.019531 321.625 L 302.019531 67.75 C 302.019531 66.425781 301.957031 65.105469 301.828125 63.789062 C 301.699219 62.472656 301.503906 61.164062 301.246094 59.867188 C 300.988281 58.566406 300.667969 57.285156 300.285156 56.019531 C 299.902344 54.75 299.457031 53.507812 298.953125 52.285156 C 298.445312 51.0625 297.882812 49.867188 297.257812 48.699219 C 296.632812 47.53125 295.957031 46.398438 295.21875 45.296875 C 294.484375 44.195312 293.699219 43.132812 292.859375 42.109375 C 292.019531 41.085938 291.132812 40.109375 290.195312 39.171875 C 289.261719 38.238281 288.28125 37.347656 287.257812 36.507812 C 286.238281 35.667969 285.175781 34.882812 284.074219 34.148438 C 282.972656 33.414062 281.839844 32.734375 280.671875 32.109375 C 279.507812 31.484375 278.3125 30.921875 277.089844 30.414062 C 275.867188 29.910156 274.621094 29.464844 273.355469 29.082031 C 272.089844 28.695312 270.808594 28.375 269.507812 28.117188 C 268.210938 27.863281 266.90625 27.667969 265.585938 27.539062 C 264.269531 27.410156 262.949219 27.347656 261.628906 27.347656 Z M 245.472656 181.023438 L 195.679688 227.597656 C 195.175781 228.066406 194.632812 228.480469 194.046875 228.847656 C 193.464844 229.214844 192.851562 229.523438 192.210938 229.773438 C 191.570312 230.027344 190.914062 230.214844 190.234375 230.34375 C 189.558594 230.472656 188.878906 230.535156 188.1875 230.535156 C 187.5 230.535156 186.816406 230.472656 186.140625 230.34375 C 185.464844 230.214844 184.804688 230.027344 184.164062 229.773438 C 183.523438 229.523438 182.914062 229.214844 182.328125 228.847656 C 181.746094 228.480469 181.203125 228.066406 180.699219 227.597656 L 131.054688 181.171875 C 130.0625 180.230469 129.121094 179.242188 128.226562 178.207031 C 127.335938 177.171875 126.5 176.09375 125.714844 174.972656 C 124.933594 173.851562 124.210938 172.695312 123.542969 171.5 C 122.878906 170.308594 122.277344 169.082031 121.734375 167.828125 C 121.191406 166.574219 120.714844 165.292969 120.304688 163.992188 C 119.890625 162.6875 119.546875 161.367188 119.269531 160.027344 C 118.992188 158.691406 118.78125 157.339844 118.640625 155.980469 C 118.5 154.621094 118.425781 153.257812 118.421875 151.890625 C 118.417969 150.523438 118.484375 149.160156 118.621094 147.800781 C 118.753906 146.441406 118.957031 145.089844 119.226562 143.75 C 119.5 142.410156 119.839844 141.089844 120.242188 139.785156 C 120.648438 138.480469 121.117188 137.195312 121.652344 135.9375 C 122.1875 134.683594 122.785156 133.453125 123.445312 132.257812 C 124.105469 131.058594 124.824219 129.898438 125.601562 128.773438 C 126.378906 127.652344 127.210938 126.566406 128.097656 125.527344 C 128.984375 124.488281 129.917969 123.496094 130.90625 122.550781 C 131.855469 121.648438 132.839844 120.792969 133.863281 119.980469 C 134.890625 119.167969 135.949219 118.40625 137.042969 117.6875 C 138.136719 116.972656 139.261719 116.308594 140.414062 115.695312 C 141.570312 115.082031 142.75 114.523438 143.957031 114.019531 C 145.160156 113.511719 146.386719 113.0625 147.632812 112.667969 C 148.878906 112.273438 150.140625 111.9375 151.417969 111.660156 C 152.695312 111.378906 153.980469 111.160156 155.28125 110.996094 C 156.578125 110.835938 157.878906 110.734375 159.183594 110.6875 C 160.492188 110.644531 161.796875 110.660156 163.101562 110.738281 C 164.40625 110.8125 165.707031 110.945312 167 111.140625 C 168.289062 111.332031 169.574219 111.585938 170.84375 111.894531 C 172.113281 112.207031 173.363281 112.574219 174.601562 112.996094 C 175.839844 113.421875 177.050781 113.902344 178.246094 114.433594 C 179.4375 114.96875 180.605469 115.558594 181.742188 116.199219 C 182.882812 116.839844 183.992188 117.53125 185.066406 118.273438 C 186.144531 119.015625 187.183594 119.804688 188.1875 120.640625 C 189.195312 119.804688 190.234375 119.015625 191.3125 118.273438 C 192.386719 117.53125 193.496094 116.839844 194.632812 116.199219 C 195.773438 115.558594 196.941406 114.96875 198.132812 114.433594 C 199.324219 113.902344 200.539062 113.421875 201.777344 112.996094 C 203.011719 112.574219 204.265625 112.207031 205.535156 111.894531 C 206.804688 111.585938 208.085938 111.332031 209.378906 111.140625 C 210.671875 110.945312 211.972656 110.8125 213.277344 110.738281 C 214.582031 110.660156 215.886719 110.644531 217.195312 110.6875 C 218.5 110.734375 219.800781 110.835938 221.097656 110.996094 C 222.394531 111.160156 223.683594 111.378906 224.960938 111.660156 C 226.238281 111.9375 227.5 112.273438 228.746094 112.667969 C 229.992188 113.0625 231.21875 113.511719 232.421875 114.019531 C 233.628906 114.523438 234.808594 115.082031 235.960938 115.695312 C 237.117188 116.308594 238.242188 116.972656 239.335938 117.6875 C 240.429688 118.40625 241.488281 119.167969 242.515625 119.980469 C 243.539062 120.792969 244.523438 121.648438 245.472656 122.550781 C 246.457031 123.492188 247.390625 124.480469 248.273438 125.519531 C 249.160156 126.554688 249.988281 127.632812 250.765625 128.753906 C 251.539062 129.871094 252.257812 131.027344 252.914062 132.222656 C 253.574219 133.414062 254.171875 134.636719 254.707031 135.890625 C 255.242188 137.144531 255.710938 138.421875 256.117188 139.71875 C 256.523438 141.019531 256.863281 142.339844 257.136719 143.671875 C 257.410156 145.007812 257.617188 146.355469 257.753906 147.710938 C 257.890625 149.066406 257.957031 150.425781 257.957031 151.785156 C 257.957031 153.148438 257.890625 154.507812 257.753906 155.863281 C 257.617188 157.21875 257.410156 158.566406 257.136719 159.898438 C 256.863281 161.234375 256.523438 162.550781 256.117188 163.851562 C 255.710938 165.152344 255.242188 166.429688 254.707031 167.683594 C 254.171875 168.9375 253.574219 170.160156 252.914062 171.351562 C 252.257812 172.542969 251.539062 173.699219 250.765625 174.820312 C 249.988281 175.941406 249.160156 177.019531 248.273438 178.054688 C 247.390625 179.09375 246.457031 180.082031 245.472656 181.023438 Z M 245.472656 181.023438 " fill-opacity="1" fill-rule="nonzero"/></svg>